<svg id="Celery" xmlns="http://www.w3.org/2000/svg" xmlns:xlink="http://www.w3.org/1999/xlink" width="85.347" height="121.367" viewBox="0 0 85.347 121.367">
  <defs>
    <clipPath id="clip-path">
      <rect id="Rectangle_2857" data-name="Rectangle 2857" width="85.347" height="121.367" fill="none"/>
    </clipPath>
    <clipPath id="clip-path-2">
      <rect id="Rectangle_2785" data-name="Rectangle 2785" width="85.347" height="121.367" transform="translate(0 0)" fill="none"/>
    </clipPath>
    <clipPath id="clip-path-3">
      <path id="Path_4482" data-name="Path 4482" d="M58.293,46.14l5.369,2.685S79.368,6.136,79.5,5.6s-2.55-.134-3.49-.134-2.953-1.075-3.356-1.075S58.695,44.932,58.293,46.14" fill="none"/>
    </clipPath>
    <clipPath id="clip-path-4">
      <rect id="Rectangle_2786" data-name="Rectangle 2786" width="24.563" height="52.348" transform="translate(51.631 0)" fill="none"/>
    </clipPath>
    <clipPath id="clip-path-6">
      <rect id="Rectangle_2787" data-name="Rectangle 2787" width="7.849" height="18.771" transform="translate(66.369 7.069)" fill="none"/>
    </clipPath>
    <clipPath id="clip-path-7">
      <rect id="Rectangle_2788" data-name="Rectangle 2788" width="3.628" height="9.801" transform="translate(72.745 6.991)" fill="none"/>
    </clipPath>
    <clipPath id="clip-path-8">
      <rect id="Rectangle_2789" data-name="Rectangle 2789" width="5.621" height="12.687" transform="translate(66.434 21.154)" fill="none"/>
    </clipPath>
    <clipPath id="clip-path-9">
      <rect id="Rectangle_2790" data-name="Rectangle 2790" width="5.14" height="13.095" transform="translate(62.408 29.438)" fill="none"/>
    </clipPath>
    <clipPath id="clip-path-10">
      <rect id="Rectangle_2791" data-name="Rectangle 2791" width="5.089" height="13.113" transform="translate(69.998 7.098)" fill="none"/>
    </clipPath>
    <clipPath id="clip-path-11">
      <path id="Path_4491" data-name="Path 4491" d="M53.016,51.313c-.056.551,2.543-.237,3.472-.373a6.632,6.632,0,0,1,2.031.282,7.489,7.489,0,0,0,1.445.294c.4-.058,7.938-42.135,8.162-43.39l-5.7-1.877s-9.353,44.513-9.408,45.064" fill="none"/>
    </clipPath>
    <clipPath id="clip-path-12">
      <rect id="Rectangle_2793" data-name="Rectangle 2793" width="17.729" height="54.612" transform="translate(56.592 1.51)" fill="none"/>
    </clipPath>
    <clipPath id="clip-path-14">
      <rect id="Rectangle_2794" data-name="Rectangle 2794" width="5.542" height="19.528" transform="translate(57.684 29.462)" fill="none"/>
    </clipPath>
    <clipPath id="clip-path-15">
      <rect id="Rectangle_2795" data-name="Rectangle 2795" width="2.572" height="10.079" transform="translate(55.701 39.343)" fill="none"/>
    </clipPath>
    <clipPath id="clip-path-16">
      <rect id="Rectangle_2796" data-name="Rectangle 2796" width="3.8" height="13.303" transform="translate(58.094 21.51)" fill="none"/>
    </clipPath>
    <clipPath id="clip-path-17">
      <rect id="Rectangle_2797" data-name="Rectangle 2797" width="3.265" height="13.632" transform="translate(61.371 12.343)" fill="none"/>
    </clipPath>
    <clipPath id="clip-path-18">
      <rect id="Rectangle_2798" data-name="Rectangle 2798" width="3.213" height="13.643" transform="translate(57.108 35.497)" fill="none"/>
    </clipPath>
    <clipPath id="clip-path-19">
      <path id="Path_4500" data-name="Path 4500" d="M51.766,22.831H23.755s5.9,46.1,5.9,58.265S27,105.725,37.692,105.725h22.62c10.688,0,8.04-12.466,8.04-24.629s5.9-58.265,5.9-58.265Z" fill="none"/>
    </clipPath>
    <clipPath id="clip-path-20">
      <rect id="Rectangle_2800" data-name="Rectangle 2800" width="63.881" height="14.565" transform="translate(19.88 17.267)" fill="none"/>
    </clipPath>
    <clipPath id="clip-path-21">
      <rect id="Rectangle_2802" data-name="Rectangle 2802" width="55.315" height="23.265" transform="translate(23.554 89.582)" fill="none"/>
    </clipPath>
    <clipPath id="clip-path-23">
      <rect id="Rectangle_2803" data-name="Rectangle 2803" width="36.095" height="20.374" transform="translate(31.17 76.723)" fill="none"/>
    </clipPath>
    <clipPath id="clip-path-25">
      <rect id="Rectangle_2804" data-name="Rectangle 2804" width="50.495" height="82.895" transform="translate(23.754 22.83)" fill="none"/>
    </clipPath>
    <clipPath id="clip-path-27">
      <rect id="Rectangle_2806" data-name="Rectangle 2806" width="38.55" height="107.316" transform="translate(14.498 13.491)" fill="none"/>
    </clipPath>
    <clipPath id="clip-path-28">
      <rect id="Rectangle_2807" data-name="Rectangle 2807" width="38.55" height="107.317" transform="translate(6.389 12.999)" fill="none"/>
    </clipPath>
    <clipPath id="clip-path-29">
      <rect id="Rectangle_2808" data-name="Rectangle 2808" width="38.55" height="107.317" transform="translate(0 13.982)" fill="none"/>
    </clipPath>
    <clipPath id="clip-path-30">
      <rect id="Rectangle_2810" data-name="Rectangle 2810" width="18.313" height="109.222" transform="translate(60.65 11.696)" fill="none"/>
    </clipPath>
    <clipPath id="clip-path-32">
      <rect id="Rectangle_2812" data-name="Rectangle 2812" width="18.313" height="109.222" transform="translate(64.336 11.696)" fill="none"/>
    </clipPath>
    <clipPath id="clip-path-35">
      <rect id="Rectangle_2813" data-name="Rectangle 2813" width="24.651" height="2.14" transform="translate(31.484 24.279)" fill="none"/>
    </clipPath>
    <clipPath id="clip-path-36">
      <rect id="Rectangle_2814" data-name="Rectangle 2814" width="10.909" height="2.99" transform="translate(59.305 24.267)" fill="none"/>
    </clipPath>
    <clipPath id="clip-path-37">
      <rect id="Rectangle_2815" data-name="Rectangle 2815" width="22.576" height="8.156" transform="translate(43.654 95.277)" fill="none"/>
    </clipPath>
    <clipPath id="clip-path-38">
      <rect id="Rectangle_2816" data-name="Rectangle 2816" width="7.31" height="4.994" transform="translate(32.951 98.067)" fill="none"/>
    </clipPath>
    <clipPath id="clip-path-39">
      <rect id="Rectangle_2817" data-name="Rectangle 2817" width="16.777" height="8.184" transform="translate(50.366 96.737)" fill="none"/>
    </clipPath>
    <clipPath id="clip-path-40">
      <rect id="Rectangle_2818" data-name="Rectangle 2818" width="21.316" height="2.588" transform="translate(26.938 23.835)" fill="none"/>
    </clipPath>
    <clipPath id="clip-path-41">
      <path id="Path_4520" data-name="Path 4520" d="M51.36,30.278h-23.9s5.032,43.3,5.032,52.639-2.26,11.013,6.86,11.013h19.3c9.12,0,6.86-1.674,6.86-11.013s5.032-52.639,5.032-52.639Z" fill="none"/>
    </clipPath>
    <clipPath id="clip-path-42">
      <rect id="Rectangle_2820" data-name="Rectangle 2820" width="31.301" height="80.379" transform="translate(23.632 22.83)" fill="none"/>
    </clipPath>
    <clipPath id="clip-path-43">
      <rect id="Rectangle_2821" data-name="Rectangle 2821" width="31.301" height="80.379" transform="translate(14.233 23.014)" fill="none"/>
    </clipPath>
    <clipPath id="clip-path-44">
      <rect id="Rectangle_2822" data-name="Rectangle 2822" width="31.301" height="80.379" transform="translate(7.23 23.383)" fill="none"/>
    </clipPath>
    <clipPath id="clip-path-45">
      <rect id="Rectangle_2824" data-name="Rectangle 2824" width="17.817" height="82.658" transform="translate(57.874 22.83)" fill="none"/>
    </clipPath>
    <clipPath id="clip-path-47">
      <rect id="Rectangle_2826" data-name="Rectangle 2826" width="17.817" height="82.658" transform="translate(60.639 22.277)" fill="none"/>
    </clipPath>
    <clipPath id="clip-path-50">
      <rect id="Rectangle_2827" data-name="Rectangle 2827" width="11.951" height="42.895" transform="translate(54.217 33.338)" fill="none"/>
    </clipPath>
    <clipPath id="clip-path-51">
      <rect id="Rectangle_2828" data-name="Rectangle 2828" width="8.519" height="10.674" transform="translate(52.247 81.895)" fill="none"/>
    </clipPath>
    <clipPath id="clip-path-52">
      <path id="Path_4534" data-name="Path 4534" d="M46.645,84.13a5.511,5.511,0,0,0-.772,2.155,6.8,6.8,0,0,1-5.033,4.791,14.077,14.077,0,0,0-6.694-6.539q.583,1.387,1.166,2.778a8.591,8.591,0,0,0-6.848-3.15,8.613,8.613,0,0,1,4.21,4.593,32.789,32.789,0,0,0-4.9-.428c-.065.778,1,1.18,1.216,1.929.28.95-.873,1.665-1.833,1.914S25,92.822,24.927,93.81l2.312.606q.068.669.134,1.336a12.561,12.561,0,0,1-4.97-.461,3.369,3.369,0,0,0,2.545,1.892,13.28,13.28,0,0,1-6.872.105c-.076.794.925,1.188,1.711,1.321l3.533.6a3.447,3.447,0,0,1-2.364,1.752,22.7,22.7,0,0,1-13.057.306c.091.552.183,1.106.275,1.658l-4.161-2.234a10.7,10.7,0,0,0,2.756,3.646,7.491,7.491,0,0,1-4.046.706A9.615,9.615,0,0,0,8.17,106.58a6.864,6.864,0,0,0-1.946,4.549c2.282.076,4.247-1.5,5.977-2.987l-1.034,2.195a7.052,7.052,0,0,0,2.044-.486,6.98,6.98,0,0,1,.055,2.717l3.037-1.219a2.694,2.694,0,0,1,.94-.25,6.4,6.4,0,0,1,1.6.464,1.2,1.2,0,0,0,1.254-.356l-1.584,4.5a9.464,9.464,0,0,0,3.74-3.263c-.016.41-.032.822-.047,1.232a3.5,3.5,0,0,1,2.3-.942,1.377,1.377,0,0,0,2.75.1,3.957,3.957,0,0,0,3.4,1.028c.168-.987-.786-1.922-.586-2.9a2.4,2.4,0,0,1,.573-1.008,16.793,16.793,0,0,1,2.813-2.7A7.1,7.1,0,0,1,32.8,110.4c2.315-1.054,3.16-3.85,3.752-6.324l1.212,3.564q.514-1.522,1.028-3.045a2.181,2.181,0,0,1,.757-1.227c.746-.47,1.5.09,2.285.65a3.115,3.115,0,0,0,1.982.817c-.508-1.653-.017-3.426.052-5.155a10.493,10.493,0,0,0-1.049-5c1.814-1.037,2.792-3.056,3.664-4.955l1.923-4.187a1.73,1.73,0,0,0,.187-1.5.886.886,0,0,0-.821-.44,1.513,1.513,0,0,0-1.131.524" fill="none"/>
    </clipPath>
    <clipPath id="clip-path-53">
      <rect id="Rectangle_2830" data-name="Rectangle 2830" width="8.699" height="24.236" transform="translate(40.899 83.283)" fill="none"/>
    </clipPath>
    <clipPath id="clip-path-54">
      <rect id="Rectangle_2831" data-name="Rectangle 2831" width="31.108" height="17.778" transform="translate(11.327 89.529)" fill="none"/>
    </clipPath>
    <clipPath id="clip-path-55">
      <rect id="Rectangle_2832" data-name="Rectangle 2832" width="36.996" height="21.713" transform="translate(2.361 81.676)" fill="none"/>
    </clipPath>
    <clipPath id="clip-path-56">
      <rect id="Rectangle_2833" data-name="Rectangle 2833" width="35.018" height="18.871" transform="translate(5.982 99.153)" fill="none"/>
    </clipPath>
    <clipPath id="clip-path-58">
      <rect id="Rectangle_2834" data-name="Rectangle 2834" width="20.195" height="13.194" transform="translate(17.742 98.067)" fill="none"/>
    </clipPath>
    <clipPath id="clip-path-59">
      <rect id="Rectangle_2835" data-name="Rectangle 2835" width="11.814" height="11.03" transform="translate(25.377 90.058)" fill="none"/>
    </clipPath>
    <clipPath id="clip-path-60">
      <rect id="Rectangle_2836" data-name="Rectangle 2836" width="2.722" height="2.811" transform="translate(38.166 94.26)" fill="none"/>
    </clipPath>
    <clipPath id="clip-path-61">
      <rect id="Rectangle_2837" data-name="Rectangle 2837" width="2.485" height="2.253" transform="translate(9.244 103.973)" fill="none"/>
    </clipPath>
    <clipPath id="clip-path-62">
      <rect id="Rectangle_2838" data-name="Rectangle 2838" width="3.423" height="1.498" transform="translate(21.47 102.468)" fill="none"/>
    </clipPath>
    <clipPath id="clip-path-63">
      <rect id="Rectangle_2839" data-name="Rectangle 2839" width="4.087" height="1.49" transform="translate(23.47 101.215)" fill="none"/>
    </clipPath>
    <clipPath id="clip-path-64">
      <rect id="Rectangle_2840" data-name="Rectangle 2840" width="5.224" height="1.283" transform="translate(26.697 99.955)" fill="none"/>
    </clipPath>
    <clipPath id="clip-path-65">
      <rect id="Rectangle_2841" data-name="Rectangle 2841" width="3.059" height="1.057" transform="translate(30.316 97.674)" fill="none"/>
    </clipPath>
    <clipPath id="clip-path-66">
      <rect id="Rectangle_2842" data-name="Rectangle 2842" width="5.007" height="1.192" transform="translate(32.245 92.528)" fill="none"/>
    </clipPath>
    <clipPath id="clip-path-67">
      <rect id="Rectangle_2843" data-name="Rectangle 2843" width="2.284" height="0.995" transform="translate(29.075 93.538)" fill="none"/>
    </clipPath>
    <clipPath id="clip-path-68">
      <rect id="Rectangle_2844" data-name="Rectangle 2844" width="2.504" height="1.309" transform="translate(35.065 89.394)" fill="none"/>
    </clipPath>
    <clipPath id="clip-path-69">
      <rect id="Rectangle_2845" data-name="Rectangle 2845" width="1.222" height="6.291" transform="translate(28.125 104.512)" fill="none"/>
    </clipPath>
    <clipPath id="clip-path-70">
      <rect id="Rectangle_2846" data-name="Rectangle 2846" width="1.189" height="2.02" transform="translate(30.791 105.673)" fill="none"/>
    </clipPath>
    <clipPath id="clip-path-71">
      <rect id="Rectangle_2847" data-name="Rectangle 2847" width="2.989" height="2.794" transform="translate(18.152 107.632)" fill="none"/>
    </clipPath>
    <clipPath id="clip-path-72">
      <rect id="Rectangle_2848" data-name="Rectangle 2848" width="1.171" height="6.232" transform="translate(25.761 105.214)" fill="none"/>
    </clipPath>
    <clipPath id="clip-path-73">
      <rect id="Rectangle_2849" data-name="Rectangle 2849" width="2.988" height="2.579" transform="translate(13.211 106.997)" fill="none"/>
    </clipPath>
    <clipPath id="clip-path-74">
      <rect id="Rectangle_2850" data-name="Rectangle 2850" width="3.332" height="0.699" transform="translate(8.518 106.943)" fill="none"/>
    </clipPath>
    <clipPath id="clip-path-75">
      <rect id="Rectangle_2851" data-name="Rectangle 2851" width="2.933" height="0.834" transform="translate(8.625 104.861)" fill="none"/>
    </clipPath>
    <clipPath id="clip-path-76">
      <rect id="Rectangle_2852" data-name="Rectangle 2852" width="2.137" height="6.245" transform="translate(39.9 95.691)" fill="none"/>
    </clipPath>
    <clipPath id="clip-path-77">
      <rect id="Rectangle_2853" data-name="Rectangle 2853" width="13.067" height="12.02" transform="translate(27.528 91.834)" fill="none"/>
    </clipPath>
    <clipPath id="clip-path-78">
      <path id="Path_4565" data-name="Path 4565" d="M36.265,101.185l-.043-.056a1.177,1.177,0,0,0,.091.083l-.048-.027m-2.8-2.837a3.6,3.6,0,0,0-.085,1.212,8.2,8.2,0,0,1-.073,1.337,6.442,6.442,0,0,1-.146.759,2.306,2.306,0,0,1-.238.337,2.191,2.191,0,0,1-.442.4c-.187.121-.31.052-.555.022a2.759,2.759,0,0,0-2.087.581c-.278.23,0,.874.408.815.21-.03.412-.081.616-.129a1.057,1.057,0,0,0-.26.188,1.213,1.213,0,0,0-.213,1.436c.034.055.093.109.154.1a.874.874,0,0,0,.522-.329.852.852,0,0,1,.536-.308c-.086.149-.18.289-.265.44a1.107,1.107,0,0,0,.068,1.377c.132.15.314.129.371-.022.159-.422.6-.72.814-1.111.256-.458,1.206-2.828,1.413-3,.01.083-.079,1.074-.077,1.136a10.341,10.341,0,0,1-.262,1.672,7.778,7.778,0,0,1-.464,1.768,2.8,2.8,0,0,1-.415.774c-.188.234-.467.343-.623.6a.6.6,0,0,0,.414.816c.737.065,1.2-.592,1.488-1.179.07-.144.132-.294.191-.445.02.375.047.751.08,1.131.011.135.076,1.21.409,1.089.458-.168.337-1.209.371-1.663.009-.115.014-.233.02-.35a2.98,2.98,0,0,0,.6.592c.07.05.147.022.152-.058.029-.641-.9-5.082-.9-5.5v-.105l.009.018a30.944,30.944,0,0,0,.837,3.095,15.515,15.515,0,0,0,1.106,2.388c-.037.111-.075.221-.111.331a2.347,2.347,0,0,0-.227.946c.013.133.111.466.281.527.46.165.756-.119.96-.487.027.2.054.406.086.608.035.229.208,1.415.636,1.354.59-.086.551-.794.5-1.35-.009-.087-.019-.175-.027-.262.235.274.482.539.746.8.6.587,1.3,1.313,2.095,1.269.16-.009.223-.212.1-.359a19.037,19.037,0,0,1-1.367-1.845c-.035-.054-.071-.108-.107-.162a1.092,1.092,0,0,0,1.228.064c.1-.076.041-.253-.081-.321a4.727,4.727,0,0,1-1.091-.912l.008-.01,0-.012c.186.021.373.029.558.033a1.959,1.959,0,0,0,.308-.021,1.906,1.906,0,0,1,.364-.019c.235.019.222-.374,0-.466s-.4-.239-.612-.343a5.268,5.268,0,0,0-.7-.295,6.979,6.979,0,0,1-1.161-.485c-.453-.44-1.029-.817-1.447-1.3a8,8,0,0,1-1.95-3.158c.5.743.772,1.262,1.173,1.751a6.717,6.717,0,0,0,1.295,1.206,4.571,4.571,0,0,0,1.327.767,4.371,4.371,0,0,0,.79.389c.308.111,1.876.675,1.9.112.018-.536-1.172-.924-1.519-1.105a5.192,5.192,0,0,1-.7-.444c.24.048.457.075.6.09a4.573,4.573,0,0,0,1.188-.015,2.307,2.307,0,0,0,.946-.256c.135-.094.044-.308-.1-.394a4.02,4.02,0,0,0-1.118-.35c-.268-.063-.535-.113-.8-.166a3.765,3.765,0,0,0,1.177-1.02c.119-.148-.112-.39-.273-.337-.524.171-1.094.283-1.638.415a5.3,5.3,0,0,1-.663.1c-.113-.054-.229-.107-.35-.156a9.4,9.4,0,0,1-1.078-.505,8.344,8.344,0,0,1-.98-.684l-.008-.011a.775.775,0,0,0-.292-.215c-.076-.055-.152-.109-.229-.161a5.146,5.146,0,0,0,.653.244,6.807,6.807,0,0,0,1.582.348,2.32,2.32,0,0,0,2.172-.738c.094-.123-.089-.29-.213-.262a5.033,5.033,0,0,1-1.485.1,4.543,4.543,0,0,0,.961-.747c.233-.233.483-.46.4-.867-.03-.152-.235-.215-.3-.106-.163.264-.7.365-.987.5a7.639,7.639,0,0,1-1.055.423,1.807,1.807,0,0,1-.3.058,1.643,1.643,0,0,0,.737-1.382.145.145,0,0,0-.2-.132c-.448.288-.8.677-1.282.93-.05.027-.1.052-.158.075a2.61,2.61,0,0,0-.8-.084c-.271-.127-.543-.248-.806-.385-.6-.313-1.189-.7-1.769-1.065a.06.06,0,0,0-.072,0,.142.142,0,0,0-.063-.015.121.121,0,0,0-.118.083" fill="none"/>
    </clipPath>
    <clipPath id="clip-path-79">
      <path id="Path_4574" data-name="Path 4574" d="M25.52,82.276l.048.008.051.032a.854.854,0,0,0-.1-.04m.5-7.586c-.61.178-.779.85-.825,1.409-.011.137-.015.276-.015.416-.133-.295-.272-.588-.416-.882-.052-.106-.438-.946-.666-.745-.315.277.106,1.074.219,1.448.03.1.062.19.094.287a2.56,2.56,0,0,0-.662-.289c-.073-.019-.127.028-.105.093.176.523,2.3,3.8,2.43,4.129.01.027.021.055.031.083l-.011-.01a26.285,26.285,0,0,0-1.635-2.221,13.332,13.332,0,0,0-1.629-1.57c0-.1-.009-.2-.013-.3a1.994,1.994,0,0,0-.114-.829c-.051-.1-.233-.338-.387-.334-.421.01-.569.33-.62.689-.084-.154-.169-.309-.257-.462-.1-.171-.608-1.068-.931-.886-.447.251-.194.807.022,1.236.034.068.069.134.1.2q-.409-.22-.846-.407a2.781,2.781,0,0,0-2.074-.365c-.125.057-.113.239.031.319a16.059,16.059,0,0,1,1.67,1.053c.045.033.091.065.137.1a.945.945,0,0,0-1.006.33c-.058.094.047.216.166.233a4.028,4.028,0,0,1,1.158.39l0,.011v.012c-.157.04-.309.093-.458.147-.186.066-.335.184-.526.241s-.061.369.145.372.4.068.6.086a4.648,4.648,0,0,0,.655.018,5.991,5.991,0,0,1,1.082.027c.5.212,1.079.335,1.563.589a6.889,6.889,0,0,1,2.546,1.925c-.63-.441-1.012-.771-1.486-1.039a5.73,5.73,0,0,0-1.412-.563,3.923,3.923,0,0,0-1.3-.2,3.765,3.765,0,0,0-.754-.066c-.281.007-1.713.043-1.554.5.152.434,1.226.374,1.56.412a4.658,4.658,0,0,1,.7.138c-.207.036-.39.083-.51.115a3.971,3.971,0,0,0-.946.382,1.966,1.966,0,0,0-.68.5c-.079.116.062.26.2.285a3.5,3.5,0,0,0,1-.068c.234-.033.464-.076.695-.117a3.229,3.229,0,0,0-.626,1.184c-.05.156.21.278.324.185.367-.3.788-.567,1.182-.842a4.6,4.6,0,0,1,.5-.285c.108.008.216.013.329.015a8.393,8.393,0,0,1,1.021.069,7.438,7.438,0,0,1,1,.244l.01.006a.646.646,0,0,0,.3.082c.078.021.156.04.233.058a4.247,4.247,0,0,0-.6.007,5.945,5.945,0,0,0-1.376.213,1.994,1.994,0,0,0-1.511,1.268c-.038.128.161.205.252.145a4.323,4.323,0,0,1,1.158-.544,3.965,3.965,0,0,0-.537.9.8.8,0,0,0-.054.821c.071.112.255.1.275-.009.048-.263.451-.512.636-.705a6.957,6.957,0,0,1,.715-.667,1.513,1.513,0,0,1,.224-.14,1.413,1.413,0,0,0-.161,1.337.124.124,0,0,0,.2.043c.27-.371.433-.792.739-1.145.032-.037.067-.073.1-.11a2.251,2.251,0,0,0,.667-.18c.256.017.512.03.766.058.577.065,1.171.192,1.748.3a.054.054,0,0,0,.059-.021.111.111,0,0,0,.125-.111,3.108,3.108,0,0,0-.31-1,7.033,7.033,0,0,1-.358-1.1,5.747,5.747,0,0,1-.119-.653,2.061,2.061,0,0,1,.086-.344,1.919,1.919,0,0,1,.229-.46c.114-.155.232-.138.439-.19a2.369,2.369,0,0,0,1.491-1.115c.152-.27-.269-.7-.581-.526-.158.09-.3.194-.452.3a.971.971,0,0,0,.15-.232,1.045,1.045,0,0,0-.277-1.218.15.15,0,0,0-.155-.032.762.762,0,0,0-.316.426.731.731,0,0,1-.334.414c.023-.146.055-.288.077-.436a.951.951,0,0,0-.484-1.081c-.152-.081-.291-.006-.29.133a8.259,8.259,0,0,1-.307,1.143c-.062.446-.087,2.641-.2,2.841-.033-.063-.271-.885-.292-.934a8.9,8.9,0,0,1-.31-1.421,6.67,6.67,0,0,1-.177-1.563,2.424,2.424,0,0,1,.09-.749c.079-.245.269-.419.313-.677a.533.533,0,0,0-.489-.539.361.361,0,0,0-.1.013" fill="none"/>
    </clipPath>
    <clipPath id="clip-path-80">
      <path id="Path_4576" data-name="Path 4576" d="M25.21,82.008c-.665.122-.888.484-1.386.875-.066.052-.023.172.066.141a5.623,5.623,0,0,1,1.876-.014,3.042,3.042,0,0,1,2.1,1.01,6.13,6.13,0,0,1,.806,1.974,14,14,0,0,0,.887,2.028,13.785,13.785,0,0,0,.847,1.389,15.033,15.033,0,0,0-8.393.388.227.227,0,0,0,.077.442,48.212,48.212,0,0,1,7.314.575,25.6,25.6,0,0,1,3.127.831,2.129,2.129,0,0,0,1.112.369c.495.169.99.339,1.486.506a5.159,5.159,0,0,0-1.773,1.937,4.892,4.892,0,0,0-.34,3.125,6.794,6.794,0,0,0,.512,1.6c.208.44.969,1.263.867,1.774-.015.07.07.142.134.093a1.154,1.154,0,0,0,.343-1.368,11.316,11.316,0,0,1-.752-3.2,3.474,3.474,0,0,1,2.234-3.034,5.173,5.173,0,0,1,.9-.271c3.752.943,8.527.655,10.09-3.515a.226.226,0,0,0-.4-.2c-2.624,4.185-8.532,2.471-12.239,1.178l-.124-.043a11.38,11.38,0,0,0-1.138-.841,9.766,9.766,0,0,1-1.308-1.425c-.455-.575-.952-1.129-1.382-1.722a16.614,16.614,0,0,1-1.126-2.2,4.418,4.418,0,0,0-3.891-2.437,2.921,2.921,0,0,0-.516.044" fill="none"/>
    </clipPath>
    <clipPath id="clip-path-82">
      <path id="Path_4591" data-name="Path 4591" d="M20.735,92.937l.071-.043a1.037,1.037,0,0,0-.108.1l.037-.059m-3.369-9.069c.038.3.1.594.164.889a1.983,1.983,0,0,0-.242-.414,1.718,1.718,0,0,0-1.856-.7.191.191,0,0,0-.13.186,1.61,1.61,0,0,0,.423.815,1.533,1.533,0,0,1,.4.829c-.191-.161-.373-.331-.567-.492a1.4,1.4,0,0,0-1.78-.294.305.305,0,0,0,.026.521c.544.34.928,1.027,1.433,1.44.59.483,3.649,2.466,3.868,2.8-.108-.01-1.389-.411-1.469-.426a14.829,14.829,0,0,1-2.162-.834,11.8,11.8,0,0,1-2.284-1.142,4.806,4.806,0,0,1-1-.792,10.705,10.705,0,0,0-.777-1.032c-.329-.284-1.012-.163-1.056.343a3,3,0,0,0,1.517,2.393c.185.137.378.265.574.389q-.728-.115-1.462-.207c-.177-.022-1.566-.236-1.41.26.214.68,1.561.807,2.147.982.149.044.3.084.454.126a2.882,2.882,0,0,0-.768.659.139.139,0,0,0,.074.226c.828.222,6.575.194,7.113.309l.135.029-.022.007a33.467,33.467,0,0,0-4.006.288,15.472,15.472,0,0,0-3.094.858c-.143-.082-.285-.166-.428-.249a3.482,3.482,0,0,0-1.221-.578c-.172-.021-.6.021-.682.238-.217.591.149,1.081.624,1.468-.263-.02-.524-.04-.787-.053-.3-.015-1.83-.11-1.754.5.108.841,1.025.985,1.744,1.067.112.013.226.024.338.036a12.4,12.4,0,0,0-1.034.809c-.762.665-1.7,1.429-1.65,2.544a.3.3,0,0,0,.463.24A18.214,18.214,0,0,1,9.61,96.534c.07-.034.141-.068.21-.1a1.562,1.562,0,0,0-.089,1.683.243.243,0,0,0,.416-.022,4.642,4.642,0,0,1,1.184-1.254l.013.013.016.011c-.029.253-.04.509-.046.762-.009.318.074.627.049.943s.483.413.6.131.311-.49.447-.75a6.27,6.27,0,0,0,.385-.891,8.036,8.036,0,0,1,.632-1.47c.573-.5,1.063-1.194,1.684-1.638,2.541-1.815,4.1-1.813,4.094-1.811a23.434,23.434,0,0,0-2.271,1.132,6.583,6.583,0,0,0-1.564,1.452,4.93,4.93,0,0,0-1,1.622,4.96,4.96,0,0,0-.506.984c-.145.395-.883,2.407-.154,2.593.692.176,1.2-1.363,1.436-1.79a5.41,5.41,0,0,1,.578-.845c-.063.317-.1.612-.119.808a6.875,6.875,0,0,0,.013,1.647,3.933,3.933,0,0,0,.326,1.383.3.3,0,0,0,.51-.027,4.873,4.873,0,0,0,.458-1.45c.084-.352.149-.708.219-1.063a6.941,6.941,0,0,0,1.312,1.916c.191.207.506-.044.439-.281-.219-.775-.362-1.6-.529-2.385a8.914,8.914,0,0,1-.125-.947c.071-.141.138-.287.2-.44a10.743,10.743,0,0,1,.659-1.351,8.608,8.608,0,0,1,.889-1.163L20,93.924a.778.778,0,0,0,.279-.344c.072-.089.143-.179.21-.27a5.848,5.848,0,0,0-.319.835,8.858,8.858,0,0,0-.458,2.092,3.963,3.963,0,0,0,.944,3.214c.159.167.376-.04.341-.219a7.788,7.788,0,0,1-.124-2.085,8.631,8.631,0,0,0,.961,1.541c.3.388.595.8,1.12.8a.225.225,0,0,0,.14-.388c-.342-.3-.47-1.079-.638-1.507a14.2,14.2,0,0,1-.541-1.579,2.889,2.889,0,0,1-.072-.434,2.754,2.754,0,0,0,1.783,1.409.164.164,0,0,0,.171-.246c-.369-.7-.871-1.3-1.2-2.036-.034-.078-.066-.158-.1-.24a3.587,3.587,0,0,0,.114-1.082c.165-.34.323-.683.5-1.009.407-.741.914-1.447,1.386-2.148a.087.087,0,0,0,0-.1.211.211,0,0,0-.087-.271,4.9,4.9,0,0,0-1.567-.459,11.185,11.185,0,0,1-1.729-.477,10.033,10.033,0,0,1-.98-.416,4.231,4.231,0,0,1-.434-.424,4.094,4.094,0,0,1-.517-.726c-.156-.295-.066-.443-.025-.775a4.663,4.663,0,0,0-.742-3.053.567.567,0,0,0-.483-.246.531.531,0,0,0-.573.582" fill="none"/>
    </clipPath>
  </defs>
  <g id="Group_8648" data-name="Group 8648" clip-path="url(#clip-path)">
    <g id="Group_8420" data-name="Group 8420">
      <g id="Group_8419" data-name="Group 8419" clip-path="url(#clip-path-2)">
        <path id="Path_4479" data-name="Path 4479" d="M58.293,46.14c.4-1.208,13.961-41.749,14.363-41.749s2.417,1.075,3.357,1.075,3.624-.4,3.489.134S63.663,48.825,63.663,48.825Z" fill="#aad458"/>
      </g>
    </g>
    <g id="Group_8425" data-name="Group 8425">
      <g id="Group_8424" data-name="Group 8424" clip-path="url(#clip-path-3)">
        <path id="Path_4480" data-name="Path 4480" d="M83.033,3l-.125-.109c-.345-.3-.728-1.356-1.191-1.184-2.636.974-3.781,4.579-4.559,7.022-2.019,6.334-3.681,10.561-5.241,15.06-1.723,4.976-3.8,9.959-5.637,14.9-.879,2.364-4.847,11.827-3.691,13.492.251.361,1.822-.527,2.254-.6,4.051-.716,4.235-7.106,5.051-10.211,1.335-5.092,4.27-9.761,6.226-14.63A86.072,86.072,0,0,0,80.428,13.6c.721-3.261,2.163-6.324,2.871-9.6A1.044,1.044,0,0,0,83.033,3" fill="#7ea936"/>
        <g id="Group_8423" data-name="Group 8423" opacity="0.49" style="mix-blend-mode: multiply;isolation: isolate">
          <g id="Group_8422" data-name="Group 8422">
            <g id="Group_8421" data-name="Group 8421" clip-path="url(#clip-path-4)">
              <path id="Path_4481" data-name="Path 4481" d="M73.38.573C72.4,2.2,71.087,3.537,70.167,5.228a41.045,41.045,0,0,0-2.682,5.983c-1.67,4.85-3.918,9.259-6.04,13.908-1.91,4.186-4.327,8.307-5.935,12.613-.612,1.638-1.033,3.331-1.517,5.009-.535,1.861-1.608,3.442-2.186,5.281-1.015,3.233,2.565,5.152,5.177,3.98,3.708-1.665,5.126-5.7,6.007-9.218a117.233,117.233,0,0,1,4.552-14.062c1.993-4.988,4.245-11.376,5.852-16.545.75-2.414,1.851-4.814,2.506-7.254.529-1.967.3-2.123-.359-4.068A1.2,1.2,0,0,0,73.38.573" fill="#aad458"/>
            </g>
          </g>
        </g>
      </g>
    </g>
    <g id="Group_8442" data-name="Group 8442">
      <g id="Group_8441" data-name="Group 8441" clip-path="url(#clip-path-2)">
        <g id="Group_8428" data-name="Group 8428" opacity="0.46" style="mix-blend-mode: multiply;isolation: isolate">
          <g id="Group_8427" data-name="Group 8427">
            <g id="Group_8426" data-name="Group 8426" clip-path="url(#clip-path-6)">
              <path id="Path_4483" data-name="Path 4483" d="M73.123,7.208c-1.973,2.306-2.678,5.783-3.554,8.62-.578,1.873-1.394,3.647-2.075,5.48a10.594,10.594,0,0,0-1.122,3.958.586.586,0,0,0,.871.5c1.042-.567,1.231-1.3,1.626-2.4.823-2.285,1.725-4.472,2.707-6.7,1.1-2.491,3.54-6.688,2.3-9.369a.479.479,0,0,0-.751-.1" fill="#caddff"/>
            </g>
          </g>
        </g>
        <g id="Group_8431" data-name="Group 8431" opacity="0.15" style="mix-blend-mode: overlay;isolation: isolate">
          <g id="Group_8430" data-name="Group 8430">
            <g id="Group_8429" data-name="Group 8429" clip-path="url(#clip-path-7)">
              <path id="Path_4484" data-name="Path 4484" d="M75.435,7.327a41.527,41.527,0,0,1-1.471,4.329c-.56,1.408-1.367,3.024-1.2,4.559a.59.59,0,0,0,1,.412c1.123-.988,1.4-2.454,1.817-3.842a25.192,25.192,0,0,0,.791-5.331c.042-.548-.8-.634-.937-.127" fill="#fff"/>
            </g>
          </g>
        </g>
        <g id="Group_8434" data-name="Group 8434" opacity="0.4" style="mix-blend-mode: overlay;isolation: isolate">
          <g id="Group_8433" data-name="Group 8433">
            <g id="Group_8432" data-name="Group 8432" clip-path="url(#clip-path-8)">
              <path id="Path_4485" data-name="Path 4485" d="M71.666,21.265a60.479,60.479,0,0,0-2.75,6.068c-.743,1.995-2.048,4.135-2.477,6.189a.254.254,0,0,0,.31.309c1.349-.363,1.629-2.163,2.113-3.317,1.234-2.947,1.933-6.1,3.173-9.033.1-.247-.243-.468-.369-.216" fill="#fff"/>
            </g>
          </g>
        </g>
        <g id="Group_8437" data-name="Group 8437" style="mix-blend-mode: multiply;isolation: isolate">
          <g id="Group_8436" data-name="Group 8436">
            <g id="Group_8435" data-name="Group 8435" clip-path="url(#clip-path-9)">
              <path id="Path_4486" data-name="Path 4486" d="M67.308,29.5c-.92,2.046-1.577,4.155-2.37,6.251-.808,2.138-2.312,4.1-2.529,6.431a.352.352,0,0,0,.652.177c.831-1.913,1.4-3.931,2.178-5.868.9-2.241,1.506-4.613,2.3-6.893.047-.135-.174-.23-.233-.1" fill="#caddff"/>
            </g>
          </g>
        </g>
        <g id="Group_8440" data-name="Group 8440" style="mix-blend-mode: multiply;isolation: isolate">
          <g id="Group_8439" data-name="Group 8439">
            <g id="Group_8438" data-name="Group 8438" clip-path="url(#clip-path-10)">
              <path id="Path_4487" data-name="Path 4487" d="M70.238,20.148c.912-2.05,1.56-4.162,2.344-6.26.8-2.142,2.3-4.1,2.5-6.442a.352.352,0,0,0-.654-.174c-.823,1.916-1.386,3.937-2.153,5.877-.888,2.245-1.487,4.618-2.274,6.9-.047.136.174.229.233.1" fill="#caddff"/>
            </g>
          </g>
        </g>
        <path id="Path_4488" data-name="Path 4488" d="M68.126,8.127c-.224,1.254-7.763,43.331-8.162,43.39s-2.546-.713-3.476-.577-3.528.924-3.472.374S62.424,6.249,62.424,6.249Z" fill="#c2db67"/>
      </g>
    </g>
    <g id="Group_8447" data-name="Group 8447">
      <g id="Group_8446" data-name="Group 8446" clip-path="url(#clip-path-11)">
        <path id="Path_4489" data-name="Path 4489" d="M49.9,54.4l.14.09c.384.249.915,1.236,1.349,1,2.467-1.346,3.078-5.079,3.493-7.609,1.079-6.56,2.112-10.983,3-15.66.985-5.173,2.318-10.4,3.419-15.561.527-2.466,3.081-12.4,1.7-13.884-.3-.321-1.728.786-2.143.924-3.9,1.3-3.162,7.644-3.518,10.835-.584,5.231-2.811,10.276-4.042,15.378A86.235,86.235,0,0,0,50.94,43.527c-.241,3.331-1.224,6.571-1.449,9.913a1.041,1.041,0,0,0,.409.957" fill="#95b042"/>
        <g id="Group_8445" data-name="Group 8445" opacity="0.49" style="mix-blend-mode: multiply;isolation: isolate">
          <g id="Group_8444" data-name="Group 8444">
            <g id="Group_8443" data-name="Group 8443" clip-path="url(#clip-path-12)">
              <path id="Path_4490" data-name="Path 4490" d="M59.8,55.4c.737-1.753,1.838-3.266,2.5-5.072a40.936,40.936,0,0,0,1.786-6.308c.951-5.041,2.535-9.729,3.961-14.637,1.285-4.419,3.079-8.846,4.044-13.339.369-1.71.54-3.446.775-5.177.261-1.919,1.093-3.638,1.4-5.542.535-3.346-3.285-4.726-5.7-3.187-3.429,2.184-4.247,6.387-4.609,9.991A117.421,117.421,0,0,1,61.5,26.7C60.249,31.926,58.946,38.573,58.1,43.92c-.391,2.5-1.133,5.032-1.427,7.541-.239,2.023.01,2.144.943,3.973A1.2,1.2,0,0,0,59.8,55.4" fill="#c2db67"/>
            </g>
          </g>
        </g>
      </g>
    </g>
    <g id="Group_8464" data-name="Group 8464">
      <g id="Group_8463" data-name="Group 8463" clip-path="url(#clip-path-2)">
        <g id="Group_8450" data-name="Group 8450" opacity="0.46" style="mix-blend-mode: multiply;isolation: isolate">
          <g id="Group_8449" data-name="Group 8449">
            <g id="Group_8448" data-name="Group 8448" clip-path="url(#clip-path-14)">
              <path id="Path_4492" data-name="Path 4492" d="M59.1,48.8c1.618-2.568,1.811-6.11,2.266-9.044.3-1.937.852-3.81,1.259-5.723a10.588,10.588,0,0,0,.538-4.079.587.587,0,0,0-.936-.368c-.949.711-1.028,1.466-1.261,2.607-.482,2.379-1.058,4.673-1.708,7.017-.725,2.623-2.533,7.13-.916,9.6A.48.48,0,0,0,59.1,48.8" fill="#cfe7ff"/>
            </g>
          </g>
        </g>
        <g id="Group_8453" data-name="Group 8453" opacity="0.15" style="mix-blend-mode: overlay;isolation: isolate">
          <g id="Group_8452" data-name="Group 8452">
            <g id="Group_8451" data-name="Group 8451" clip-path="url(#clip-path-15)">
              <path id="Path_4493" data-name="Path 4493" d="M56.79,49.014a41.572,41.572,0,0,1,.828-4.5c.35-1.474.914-3.191.522-4.685A.589.589,0,0,0,57.1,39.57c-.969,1.141-1.026,2.631-1.242,4.065a25.215,25.215,0,0,0-.009,5.389c.038.549.88.512.945-.01" fill="#fff"/>
            </g>
          </g>
        </g>
        <g id="Group_8456" data-name="Group 8456" opacity="0.4" style="mix-blend-mode: overlay;isolation: isolate">
          <g id="Group_8455" data-name="Group 8455">
            <g id="Group_8454" data-name="Group 8454" clip-path="url(#clip-path-16)">
              <path id="Path_4494" data-name="Path 4494" d="M58.5,34.678a60.531,60.531,0,0,0,1.842-6.4c.445-2.081,1.426-4.387,1.553-6.482a.255.255,0,0,0-.352-.261c-1.282.555-1.3,2.376-1.609,3.589-.794,3.094-1.029,6.315-1.831,9.4-.067.259.309.428.4.16" fill="#fff"/>
            </g>
          </g>
        </g>
        <g id="Group_8459" data-name="Group 8459" style="mix-blend-mode: multiply;isolation: isolate">
          <g id="Group_8458" data-name="Group 8458">
            <g id="Group_8457" data-name="Group 8457" clip-path="url(#clip-path-17)">
              <path id="Path_4495" data-name="Path 4495" d="M61.618,25.9c.612-2.158.957-4.34,1.438-6.528.49-2.233,1.694-4.388,1.57-6.731a.352.352,0,0,0-.671-.08c-.545,2.013-.816,4.093-1.3,6.122-.563,2.348-.822,4.781-1.279,7.154-.027.14.2.2.246.063" fill="#cfe7ff"/>
            </g>
          </g>
        </g>
        <g id="Group_8462" data-name="Group 8462" style="mix-blend-mode: multiply;isolation: isolate">
          <g id="Group_8461" data-name="Group 8461">
            <g id="Group_8460" data-name="Group 8460" clip-path="url(#clip-path-18)">
              <path id="Path_4496" data-name="Path 4496" d="M60.074,35.576c-.6,2.161-.94,4.344-1.412,6.534-.481,2.235-1.676,4.394-1.544,6.737a.352.352,0,0,0,.672.077c.537-2.015.8-4.1,1.279-6.127.553-2.35.8-4.785,1.25-7.159.026-.141-.206-.2-.245-.062" fill="#cfe7ff"/>
            </g>
          </g>
        </g>
      </g>
    </g>
    <g id="Group_8478" data-name="Group 8478">
      <g id="Group_8477" data-name="Group 8477" clip-path="url(#clip-path-19)">
        <g id="Group_8467" data-name="Group 8467" opacity="0.43" style="mix-blend-mode: multiply;isolation: isolate">
          <g id="Group_8466" data-name="Group 8466">
            <g id="Group_8465" data-name="Group 8465" clip-path="url(#clip-path-20)">
              <path id="Path_4497" data-name="Path 4497" d="M25.945,25.81c2.408-.167,4.63-.134,6-.171,5.563-.151,9.508.454,15.073.476,5.522.023,11.756-.145,17.267.153,4.55.246,9.9-1.037,12.768,3.2,3,4.427,8.305,2.1,6.248-2.64-2.535-5.847-9.4-7.749-15.166-8.354a208.977,208.977,0,0,0-22.51-1.126c-6.576.022-13.569-.533-20.025.946a7.618,7.618,0,0,0-5.146,3.568c-1.384,2.409.023,3.549,1.258,5.33.472.68.81,1.78,1.066.94,0,0,2.512-2.279,3.169-2.325" fill="#caddff"/>
            </g>
          </g>
        </g>
        <g id="Group_8473" data-name="Group 8473" style="mix-blend-mode: multiply;isolation: isolate">
          <g id="Group_8472" data-name="Group 8472">
            <g id="Group_8471" data-name="Group 8471" clip-path="url(#clip-path-21)">
              <g id="Group_8470" data-name="Group 8470" opacity="0.46">
                <g id="Group_8469" data-name="Group 8469">
                  <g id="Group_8468" data-name="Group 8468" clip-path="url(#clip-path-21)">
                    <path id="Path_4498" data-name="Path 4498" d="M24.379,94.912c-2.434,4.746.916,10.356,4.893,13.132,4.573,3.193,9.994,4.115,15.434,4.569,7.119.594,15.228.116,22.045-2.161a14.848,14.848,0,0,0,7.233-5.8c1.849-2.6,3.963-4.946,4.716-8.134.606-2.565-.456-4.528-2.458-6.042l-.343-.259a4.481,4.481,0,0,0-4.605,0c-3.495,2-3.937,7.092-7.171,9.57-1.886,1.446-5.38,1.38-7.637,1.75a43.381,43.381,0,0,1-9.207.454,44.276,44.276,0,0,1-11.29-1.726c-3.532-1.128-4.8-4.334-7.554-6.42a2.956,2.956,0,0,0-4.056,1.063" fill="#caddff"/>
                  </g>
                </g>
              </g>
            </g>
          </g>
        </g>
        <g id="Group_8476" data-name="Group 8476" opacity="0.31" style="mix-blend-mode: screen;isolation: isolate">
          <g id="Group_8475" data-name="Group 8475">
            <g id="Group_8474" data-name="Group 8474" clip-path="url(#clip-path-23)">
              <path id="Path_4499" data-name="Path 4499" d="M32.459,81.911c-1.718,2.385-1.274,4.963-1.129,8.071.118,2.518-.2,3.979,1.963,5.334,4.278,2.679,10.1,1.533,14.962,1.562,7.6.046,16.45.461,18.475-4.239.7-1.634.654-3.694.185-7.28-.645-4.93-4.29-7.272-3.456-8.109.878-.88-2.7-.535-3.731.139-3.609,2.347-.091,6.766-.628,10.348-.535,3.56-7.308,1.482-9.94,1.524a96.859,96.859,0,0,1-9.936.024c-1.331-.116-3.066-.64-3.519-2.108-.641-2.077-.558-3.325-1.7-5.266a.91.91,0,0,0-1.551,0" fill="#caddff"/>
            </g>
          </g>
        </g>
      </g>
    </g>
    <g id="Group_8483" data-name="Group 8483">
      <g id="Group_8482" data-name="Group 8482" clip-path="url(#clip-path-2)">
        <path id="Path_4501" data-name="Path 4501" d="M65.511,82.917c0-9.339,5.032-52.639,5.032-52.639H27.462s5.031,43.3,5.031,52.639S30.234,93.93,39.353,93.93h19.3c9.12,0,6.86-1.674,6.86-11.013" fill="#76b72a"/>
        <g id="Group_8481" data-name="Group 8481" style="mix-blend-mode: multiply;isolation: isolate">
          <g id="Group_8480" data-name="Group 8480">
            <g id="Group_8479" data-name="Group 8479" clip-path="url(#clip-path-25)">
              <path id="Path_4502" data-name="Path 4502" d="M68.352,81.1c0-12.163,5.9-58.266,5.9-58.266h-50.5s5.9,46.1,5.9,58.266S27,105.724,37.692,105.724H60.311c10.689,0,8.041-12.465,8.041-24.628" fill="#caddff"/>
            </g>
          </g>
        </g>
      </g>
    </g>
    <g id="Group_8507" data-name="Group 8507">
      <g id="Group_8506" data-name="Group 8506" clip-path="url(#clip-path-19)">
        <g id="Group_8486" data-name="Group 8486" opacity="0.11" style="mix-blend-mode: multiply;isolation: isolate">
          <g id="Group_8485" data-name="Group 8485">
            <g id="Group_8484" data-name="Group 8484" clip-path="url(#clip-path-27)">
              <path id="Path_4503" data-name="Path 4503" d="M38.091,14.7c-2.544,2.734-20.958,2.242-21.381,5.8C16.258,24.3,14.484,32.664,14.5,36.474c.03,8.282,7.5,16.534,7.372,24.819-.133,8.755-5.3,17.039-5.16,25.8.067,4.4,8.521,11.815,8.6,16.218.084,4.675,9.558,6.757,10.445,11.361,1.574,8.164,14.91,8.193,16.461,0,1.649-8.708.362-18.382.215-27.225-.147-8.75.068-17.485.111-26.233.042-8.526-3.779-36.966-4.625-40.713-.735-3.258-1.465-3.388-3.917-5.8a4.208,4.208,0,0,0-5.909,0" fill="#e0e0e0"/>
            </g>
          </g>
        </g>
        <g id="Group_8489" data-name="Group 8489" opacity="0.11" style="mix-blend-mode: multiply;isolation: isolate">
          <g id="Group_8488" data-name="Group 8488">
            <g id="Group_8487" data-name="Group 8487" clip-path="url(#clip-path-28)">
              <path id="Path_4504" data-name="Path 4504" d="M29.982,14.211c-2.544,2.734-20.958,2.242-21.381,5.8C8.15,23.8,6.376,32.173,6.389,35.983c.031,8.282,7.5,16.535,7.372,24.819-.133,8.756-5.294,17.039-5.16,25.8.067,4.4,8.521,11.815,8.6,16.217.085,4.675,9.558,6.757,10.446,11.362,1.573,8.164,14.909,8.192,16.46,0,1.649-8.709.363-18.383.215-27.225-.146-8.751.069-17.486.111-26.234.042-8.525-3.778-36.966-4.624-40.713-.736-3.257-1.466-3.388-3.918-5.8a4.209,4.209,0,0,0-5.909,0" fill="#e0e0e0"/>
            </g>
          </g>
        </g>
        <g id="Group_8492" data-name="Group 8492" opacity="0.11" style="mix-blend-mode: multiply;isolation: isolate">
          <g id="Group_8491" data-name="Group 8491">
            <g id="Group_8490" data-name="Group 8490" clip-path="url(#clip-path-29)">
              <path id="Path_4505" data-name="Path 4505" d="M23.593,15.194c-2.544,2.734-20.958,2.242-21.381,5.8C1.76,24.787-.014,33.156,0,36.966.03,45.248,7.5,53.5,7.372,61.785c-.133,8.756-5.3,17.039-5.16,25.8.067,4.4,8.521,11.815,8.6,16.217.084,4.675,9.558,6.757,10.445,11.362,1.574,8.164,14.91,8.192,16.461,0,1.649-8.709.362-18.383.215-27.225-.146-8.751.068-17.486.111-26.234.042-8.525-3.779-36.966-4.625-40.713-.735-3.257-1.465-3.388-3.917-5.8a4.209,4.209,0,0,0-5.909,0" fill="#e0e0e0"/>
            </g>
          </g>
        </g>
        <g id="Group_8498" data-name="Group 8498" style="mix-blend-mode: screen;isolation: isolate">
          <g id="Group_8497" data-name="Group 8497">
            <g id="Group_8496" data-name="Group 8496" clip-path="url(#clip-path-30)">
              <g id="Group_8495" data-name="Group 8495" opacity="0.07" style="mix-blend-mode: multiply;isolation: isolate">
                <g id="Group_8494" data-name="Group 8494">
                  <g id="Group_8493" data-name="Group 8493" clip-path="url(#clip-path-30)">
                    <path id="Path_4506" data-name="Path 4506" d="M69.57,12.2c-2.555,1.81-3.257,4.337-4.11,7.231a78.094,78.094,0,0,0-2.324,14.283c-.905,9.4-1.961,18.747-2.327,28.2-.35,9.017-.036,18.043.134,27.06.085,4.529.049,9.059.138,13.587.078,4.026-.032,8.344.743,12.287a8.166,8.166,0,0,0,5.768,5.768c3.873,1.066,7.084-.777,9.327-3.795,2.509-3.378,2.1-7.65,1.864-11.605-.24-3.98-.16-7.981-.2-11.966-.1-9.02-.49-18.03-.385-27.052.1-8.968.577-17.869.063-26.833-.247-4.294-.759-8.514-1.309-12.776-.308-2.391-.622-4.788-1.084-7.154-.256-1.314-1.307-3.029-1.253-4.337.1-2.406-2.976-4.359-5.044-2.894" fill="#e0e0e0"/>
                  </g>
                </g>
              </g>
            </g>
          </g>
        </g>
        <g id="Group_8504" data-name="Group 8504" style="mix-blend-mode: screen;isolation: isolate">
          <g id="Group_8503" data-name="Group 8503">
            <g id="Group_8502" data-name="Group 8502" clip-path="url(#clip-path-32)">
              <g id="Group_8501" data-name="Group 8501" opacity="0.07" style="mix-blend-mode: multiply;isolation: isolate">
                <g id="Group_8500" data-name="Group 8500">
                  <g id="Group_8499" data-name="Group 8499" clip-path="url(#clip-path-32)">
                    <path id="Path_4507" data-name="Path 4507" d="M73.256,12.2c-2.555,1.81-3.257,4.337-4.11,7.231a78.094,78.094,0,0,0-2.324,14.283c-.9,9.4-1.961,18.747-2.327,28.2-.35,9.017-.036,18.043.134,27.06.085,4.529.049,9.059.137,13.587.079,4.026-.032,8.344.744,12.287a8.166,8.166,0,0,0,5.768,5.768c3.873,1.066,7.084-.777,9.327-3.795,2.508-3.378,2.1-7.65,1.864-11.605-.24-3.98-.16-7.981-.2-11.966-.1-9.02-.49-18.03-.385-27.052.1-8.968.577-17.869.063-26.833-.247-4.294-.76-8.514-1.309-12.776-.308-2.391-.622-4.788-1.084-7.154C79.3,18.119,78.246,16.4,78.3,15.1c.1-2.406-2.976-4.359-5.044-2.894" fill="#e0e0e0"/>
                  </g>
                </g>
              </g>
            </g>
          </g>
        </g>
      </g>
    </g>
    <g id="Group_8528" data-name="Group 8528">
      <g id="Group_8527" data-name="Group 8527" clip-path="url(#clip-path-2)">
        <g id="Group_8511" data-name="Group 8511" opacity="0.37">
          <g id="Group_8510" data-name="Group 8510">
            <g id="Group_8509" data-name="Group 8509" clip-path="url(#clip-path-35)">
              <path id="Path_4509" data-name="Path 4509" d="M31.821,25.314c7.831,1.262,15.457,1.053,23.345,1.105a1,1,0,0,0,0-2c-3.734-.165-7.46.237-11.2.147A119.4,119.4,0,0,0,31.945,24.4c-.491.038-.675.828-.124.917" fill="#fff"/>
            </g>
          </g>
        </g>
        <g id="Group_8514" data-name="Group 8514" opacity="0.37">
          <g id="Group_8513" data-name="Group 8513">
            <g id="Group_8512" data-name="Group 8512" clip-path="url(#clip-path-36)">
              <path id="Path_4510" data-name="Path 4510" d="M59.958,26.433c3.094-.062,6.377,1.207,9.409.707a1.185,1.185,0,0,0,0-2.271c-1.746-.264-3.558-.391-5.321-.545a5.887,5.887,0,0,0-4.546,1,.652.652,0,0,0,.458,1.106" fill="#fff"/>
            </g>
          </g>
        </g>
        <g id="Group_8517" data-name="Group 8517" opacity="0.37">
          <g id="Group_8516" data-name="Group 8516">
            <g id="Group_8515" data-name="Group 8515" clip-path="url(#clip-path-37)">
              <path id="Path_4511" data-name="Path 4511" d="M64.527,95.733c-1.446,3.023-5.859,3.036-8.756,3.194-3.341.182-6.67-.231-10-.134a2.187,2.187,0,0,0,0,4.371c5.126.247,21.24,1.839,20.433-6.977-.073-.8-1.251-1.337-1.674-.454" fill="#fff"/>
            </g>
          </g>
        </g>
        <g id="Group_8520" data-name="Group 8520" opacity="0.37">
          <g id="Group_8519" data-name="Group 8519">
            <g id="Group_8518" data-name="Group 8518" clip-path="url(#clip-path-38)">
              <path id="Path_4512" data-name="Path 4512" d="M32.972,99.411c.519,2.478,4.675,4.681,6.908,3.138a.76.76,0,0,0,.27-1.029A5.01,5.01,0,0,0,37.5,99.939a11.739,11.739,0,0,1-3.008-1.7c-.805-.563-1.693.359-1.523,1.171" fill="#fff"/>
            </g>
          </g>
        </g>
        <g id="Group_8523" data-name="Group 8523" opacity="0.42">
          <g id="Group_8522" data-name="Group 8522">
            <g id="Group_8521" data-name="Group 8521" clip-path="url(#clip-path-39)">
              <path id="Path_4513" data-name="Path 4513" d="M51.179,103.546a13.571,13.571,0,0,0,8.56,1.162c2.867-.416,7.437-2.054,7.4-5.549a2.456,2.456,0,0,0-2.4-2.4c-1.969-.244-4.064,1.573-5.84,2.282a15.839,15.839,0,0,1-6.869,1.35c-1.686-.156-2.308,2.408-.855,3.155" fill="#fff"/>
            </g>
          </g>
        </g>
        <g id="Group_8526" data-name="Group 8526" opacity="0.42">
          <g id="Group_8525" data-name="Group 8525">
            <g id="Group_8524" data-name="Group 8524" clip-path="url(#clip-path-40)">
              <path id="Path_4514" data-name="Path 4514" d="M27.338,25.831a72.2,72.2,0,0,0,10.149.563c3.372-.072,7.071.364,10.3-.713a.662.662,0,0,0,0-1.267c-2.839-.927-5.9-.488-8.85-.394-3.928.124-7.7.492-11.6.981a.415.415,0,0,0,0,.83" fill="#fff"/>
            </g>
          </g>
        </g>
      </g>
    </g>
    <g id="Group_8551" data-name="Group 8551">
      <g id="Group_8550" data-name="Group 8550" clip-path="url(#clip-path-41)">
        <g id="Group_8531" data-name="Group 8531" opacity="0.21" style="mix-blend-mode: multiply;isolation: isolate">
          <g id="Group_8530" data-name="Group 8530">
            <g id="Group_8529" data-name="Group 8529" clip-path="url(#clip-path-42)">
              <path id="Path_4515" data-name="Path 4515" d="M46.238,22.83c-5.4,3.146-22.369,2.929-22.586,8.115-.308,7.359,3.157,29.5,2.58,36.86s3.363,16.755,3.135,24.14c-.051,1.666,8.129,1.757,8.427,4.346,1.156,4.062,4.19,6.778,8.467,6.914a8.638,8.638,0,0,0,8.3-6.317c.79-2.9.183-5.626-.473-8.482.594,2.589-.026-2.447-.039-3.1-.039-1.828.02-3.661.034-5.489A192.37,192.37,0,0,0,53.139,58.9c-.4-3.96,1.217-39.468-6.74-34.829Z" fill="#caddff"/>
            </g>
          </g>
        </g>
        <g id="Group_8534" data-name="Group 8534" opacity="0.21" style="mix-blend-mode: multiply;isolation: isolate">
          <g id="Group_8533" data-name="Group 8533">
            <g id="Group_8532" data-name="Group 8532" clip-path="url(#clip-path-43)">
              <path id="Path_4516" data-name="Path 4516" d="M36.838,23.014c-5.4,3.146-22.369,2.929-22.586,8.115-.308,7.36,3.157,29.5,2.581,36.86s3.362,16.755,3.135,24.14c-.052,1.667,8.128,1.757,8.426,4.347,1.156,4.061,4.19,6.777,8.467,6.913a8.636,8.636,0,0,0,8.3-6.317c.79-2.9.183-5.626-.473-8.481.595,2.589-.026-2.448-.039-3.1-.038-1.828.02-3.661.034-5.489a192.351,192.351,0,0,0-.942-20.924c-.4-3.961,1.217-39.468-6.74-34.83Z" fill="#caddff"/>
            </g>
          </g>
        </g>
        <g id="Group_8537" data-name="Group 8537" opacity="0.21" style="mix-blend-mode: multiply;isolation: isolate">
          <g id="Group_8536" data-name="Group 8536">
            <g id="Group_8535" data-name="Group 8535" clip-path="url(#clip-path-44)">
              <path id="Path_4517" data-name="Path 4517" d="M29.835,23.383C24.439,26.529,7.466,26.312,7.25,31.5c-.309,7.359,3.156,29.5,2.58,36.86s3.362,16.755,3.135,24.14c-.051,1.666,8.128,1.757,8.426,4.346,1.156,4.062,4.191,6.778,8.467,6.914a8.636,8.636,0,0,0,8.3-6.317c.79-2.9.183-5.626-.472-8.481.594,2.589-.027-2.448-.04-3.1-.038-1.828.02-3.661.034-5.489a192.129,192.129,0,0,0-.942-20.925c-.4-3.96,1.218-39.467-6.739-34.829Z" fill="#caddff"/>
            </g>
          </g>
        </g>
        <g id="Group_8543" data-name="Group 8543" opacity="0.22" style="mix-blend-mode: overlay;isolation: isolate">
          <g id="Group_8542" data-name="Group 8542">
            <g id="Group_8541" data-name="Group 8541" clip-path="url(#clip-path-45)">
              <g id="Group_8540" data-name="Group 8540" opacity="0.41">
                <g id="Group_8539" data-name="Group 8539">
                  <g id="Group_8538" data-name="Group 8538" clip-path="url(#clip-path-45)">
                    <path id="Path_4518" data-name="Path 4518" d="M64.616,22.83c-5.343.237-3.844,11.763-4.29,15.671-.733,6.431-.192,11.6-.782,18.045-.615,6.732-1.009,13.447-1.263,20.2-.122,3.241-.238,6.465-.2,9.708.043,3.473-.435,7.244-.071,10.652.4,3.772,2.273,7.026,6.164,8.1,3.452.949,7.81-.525,9.483-3.859,3.175-6.332,1.771-13.433,1.418-20.231-.376-7.244-.662-14.509-.708-21.763a153.136,153.136,0,0,0-1.26-21.081c-.4-2.8-.505-13.62-5.042-13.419Z" fill="#caddff"/>
                  </g>
                </g>
              </g>
            </g>
          </g>
        </g>
        <g id="Group_8549" data-name="Group 8549" opacity="0.22" style="mix-blend-mode: overlay;isolation: isolate">
          <g id="Group_8548" data-name="Group 8548">
            <g id="Group_8547" data-name="Group 8547" clip-path="url(#clip-path-47)">
              <g id="Group_8546" data-name="Group 8546" opacity="0.41">
                <g id="Group_8545" data-name="Group 8545">
                  <g id="Group_8544" data-name="Group 8544" clip-path="url(#clip-path-47)">
                    <path id="Path_4519" data-name="Path 4519" d="M67.38,22.277c-5.342.237-3.843,11.763-4.289,15.671-.733,6.432-.192,11.6-.782,18.045-.616,6.733-1.01,13.447-1.263,20.2-.123,3.24-.238,6.465-.2,9.708.043,3.472-.435,7.243-.073,10.651.4,3.772,2.274,7.027,6.166,8.1,3.451.95,7.81-.524,9.482-3.859,3.176-6.332,1.772-13.433,1.419-20.231-.377-7.244-.662-14.509-.708-21.763a153.122,153.122,0,0,0-1.261-21.08c-.4-2.8-.505-13.621-5.042-13.42Z" fill="#caddff"/>
                  </g>
                </g>
              </g>
            </g>
          </g>
        </g>
      </g>
    </g>
    <g id="Group_8559" data-name="Group 8559">
      <g id="Group_8558" data-name="Group 8558" clip-path="url(#clip-path-2)">
        <g id="Group_8554" data-name="Group 8554" opacity="0.17" style="mix-blend-mode: overlay;isolation: isolate">
          <g id="Group_8553" data-name="Group 8553">
            <g id="Group_8552" data-name="Group 8552" clip-path="url(#clip-path-50)">
              <path id="Path_4521" data-name="Path 4521" d="M57.789,75.772c4.39-4.042,5-10.217,6.039-15.779,1.247-6.654.45-13.4,2.147-19.935,1.758-6.77-9.03-9.612-10.38-2.861a41.27,41.27,0,0,0-1.07,8.887c.042,3.3.4,6.592.347,9.9-.052,3.249-.671,6.46-.654,9.71.015,2.983.586,5.96.8,8.934a1.64,1.64,0,0,0,2.772,1.148" fill="#caddff"/>
            </g>
          </g>
        </g>
        <g id="Group_8557" data-name="Group 8557" opacity="0.17" style="mix-blend-mode: overlay;isolation: isolate">
          <g id="Group_8556" data-name="Group 8556">
            <g id="Group_8555" data-name="Group 8555" clip-path="url(#clip-path-51)">
              <path id="Path_4522" data-name="Path 4522" d="M54.835,82.77q.947-.706-.307.25a2.614,2.614,0,0,0-.731.872c-.207.352-.436.687-.661,1.027a5.335,5.335,0,0,0-.169,5.619,4.174,4.174,0,0,0,3.542,2.031,4.221,4.221,0,0,0,3.955-3.011,7.443,7.443,0,0,0,.281-1.851,3.369,3.369,0,0,0-.132-1.371c.185,1.326.075.434.053.143a5.085,5.085,0,0,0-1.482-3.709,3.14,3.14,0,0,0-4.349,0" fill="#caddff"/>
            </g>
          </g>
        </g>
        <path id="Path_4523" data-name="Path 4523" d="M64.05,34.254c-1.968,5.687-1.846,12.211-2.268,18.168-.255,3.614-.421,7.234-.531,10.855-.1,3.22-1.233,6.3-1.28,9.534-.031,2.113,3.372,2.443,3.711.347l.129-.8c.124-.765-.434-1.739-1.333-1.609l-.705.1q.977.9,1.956,1.8c.12-2.819,1.044-5.521,1.167-8.331.155-3.558.106-7.128.224-10.689.212-6.382,1.048-13.116-.205-19.417-.1-.486-.738-.332-.865.035" fill="#fff"/>
        <path id="Path_4524" data-name="Path 4524" d="M60.531,79.989c-1.067.883-1.388,3.019-1.495,4.294-.134,1.6-.352,4.117.625,5.522,1,1.443,3.6.6,2.984-1.258-.88-2.675-.341-5.679-1.291-8.341a.5.5,0,0,0-.823-.217" fill="#fff"/>
        <path id="Path_4525" data-name="Path 4525" d="M39.411,25a21.28,21.28,0,0,0,6.841.618c2.04-.033,4.213.293,6.082-.612a.6.6,0,0,0,0-1.03c-1.885-.9-4.037-.5-6.082-.45a24.291,24.291,0,0,0-6.841.824.34.34,0,0,0,0,.65" fill="#fff"/>
        <path id="Path_4526" data-name="Path 4526" d="M58.531,25.1a1.482,1.482,0,0,0,1.408,1.014.942.942,0,0,0,.814-.467l.018-.026-.5.384a.984.984,0,0,0,.7-.436.644.644,0,0,0,0-.673,1.238,1.238,0,0,0-.5-.42l.385.5c-.076-.561-.751-.825-1.209-.992A.913.913,0,0,0,58.531,25.1" fill="#fff"/>
        <path id="Path_4527" data-name="Path 4527" d="M33.207,95.6c.375-.049.333-.042-.125.018a1.546,1.546,0,0,0-.842.648,1.773,1.773,0,0,0-.324.991,1.639,1.639,0,0,0,.517,1.235,1.884,1.884,0,0,0,1.247.468,1.4,1.4,0,0,0,1.2-2.1c-.09-.126-.071-.071.059.167a3.379,3.379,0,0,0-.206-.478c.032.082.063.164.094.245q.031.417.037.178l-.051-.375q-.258-.613-.05-.118a1.3,1.3,0,0,0-1.558-.884" fill="#fff"/>
        <path id="Path_4528" data-name="Path 4528" d="M6.769,104.336a7.5,7.5,0,0,1-4.046.705,9.624,9.624,0,0,0,5.447,1.54,6.857,6.857,0,0,0-1.946,4.548c2.281.077,4.246-1.5,5.977-2.986l-1.034,2.193a7.019,7.019,0,0,0,2.044-.485,6.98,6.98,0,0,1,.055,2.717l3.037-1.219a2.71,2.71,0,0,1,.94-.25,6.337,6.337,0,0,1,1.6.465c.542.139,1.28-.059,1.345-.614l-1.674,4.763a9.464,9.464,0,0,0,3.739-3.264q-.023.617-.047,1.233a3.5,3.5,0,0,1,2.3-.943,1.377,1.377,0,0,0,2.75.1,3.96,3.96,0,0,0,3.4,1.029c.168-.988-.786-1.922-.586-2.9a2.4,2.4,0,0,1,.572-1.009,16.837,16.837,0,0,1,2.814-2.7A7.127,7.127,0,0,1,32.8,110.4c2.314-1.054,3.16-3.851,3.752-6.324q.606,1.782,1.213,3.564L38.8,104.6a2.176,2.176,0,0,1,.757-1.227c1.341-.845,2.691,1.634,4.267,1.467-.509-1.652-.017-3.425.052-5.154a10.509,10.509,0,0,0-1.049-5c1.814-1.037,2.792-3.055,3.664-4.954l1.923-4.188a1.73,1.73,0,0,0,.187-1.5c-.367-.677-1.466-.512-1.953.085a5.521,5.521,0,0,0-.771,2.154,6.8,6.8,0,0,1-5.033,4.791,14.084,14.084,0,0,0-6.695-6.539q.583,1.389,1.166,2.778a8.591,8.591,0,0,0-6.847-3.15,8.617,8.617,0,0,1,4.21,4.593,32.8,32.8,0,0,0-4.9-.428c-.065.778,1,1.18,1.217,1.929.28.951-.873,1.666-1.833,1.914s-2.162.649-2.233,1.638l2.312.606q.068.667.134,1.335a12.582,12.582,0,0,1-4.971-.46,3.372,3.372,0,0,0,2.546,1.891,13.284,13.284,0,0,1-6.873.106c-.076.794.925,1.188,1.712,1.32l3.532.6a3.449,3.449,0,0,1-2.362,1.753,22.7,22.7,0,0,1-13.058.305q.136.83.274,1.659l-4.16-2.235a10.693,10.693,0,0,0,2.756,3.647" fill="#a3d140"/>
      </g>
    </g>
    <g id="Group_8573" data-name="Group 8573">
      <g id="Group_8572" data-name="Group 8572" clip-path="url(#clip-path-52)">
        <g id="Group_8562" data-name="Group 8562" opacity="0.48" style="mix-blend-mode: multiply;isolation: isolate">
          <g id="Group_8561" data-name="Group 8561">
            <g id="Group_8560" data-name="Group 8560" clip-path="url(#clip-path-53)">
              <path id="Path_4529" data-name="Path 4529" d="M48.285,83.619c-1.206,2.222-2.021,4.546-3.782,6.434-1.22,1.308-3.032,3.142-3.443,4.962a8.5,8.5,0,0,0,.486,4.743,6.528,6.528,0,0,1,.544,3.328c-.17,1.174-.958,1.941-1.047,3.146a1.1,1.1,0,0,0,1.45,1.212c3.979-1.512,2.873-6.54,1.833-9.6-1.118-3.288,3-5.156,4.018-7.789.8-2.071,1.668-4.187,1.036-6.395a.6.6,0,0,0-1.1-.042" fill="#a3d140"/>
            </g>
          </g>
        </g>
        <g id="Group_8565" data-name="Group 8565" opacity="0.48" style="mix-blend-mode: multiply;isolation: isolate">
          <g id="Group_8564" data-name="Group 8564">
            <g id="Group_8563" data-name="Group 8563" clip-path="url(#clip-path-54)">
              <path id="Path_4530" data-name="Path 4530" d="M42.165,89.567c-1.584,1.324-4.148,2.205-5.112,4.172-1.53,3.121-4.1,6.355-7.412,7.723-3.1,1.28-7.418,3.612-10.689,2.541-2.439-.8-3.863-.436-6.3-.056-1.308.2-1.944,2.209-.482,2.748a3.169,3.169,0,0,0,2.173.036c2.038-.479,3.475.03,5.473.444,3.476.72,6.549-1.7,9.665-2.8,3.368-1.185,5.571-3.51,7.823-6.2a7.5,7.5,0,0,0,1.284-2.993c.6-2.208,2.447-3.636,3.815-5.369.118-.149-.079-.379-.234-.25" fill="#a3d140"/>
            </g>
          </g>
        </g>
        <g id="Group_8568" data-name="Group 8568" opacity="0.48" style="mix-blend-mode: multiply;isolation: isolate">
          <g id="Group_8567" data-name="Group 8567">
            <g id="Group_8566" data-name="Group 8566" clip-path="url(#clip-path-55)">
              <path id="Path_4531" data-name="Path 4531" d="M36.357,84.583a23.944,23.944,0,0,0-5.33-2.8,2.556,2.556,0,0,0-3.2,1.994c-.32,1.8-1.35,1.852-.28,3.084-1.02.26-.5,2.184-.8,2.476a3.44,3.44,0,0,0-1.008,1.648,3.249,3.249,0,0,0-1.277,1.791,5.334,5.334,0,0,0,.032,1.256c.011.142.023.253.037.349a13.892,13.892,0,0,0-5.927.636c-1.31.443-2.9,1.724-2.64,3.179a20.171,20.171,0,0,0-3.875.711,12.446,12.446,0,0,1-7.424-.3,1.643,1.643,0,0,0-2.007,2.433,3.9,3.9,0,0,0,3.56,1.835c1.587.023,3.275.8,4.835.4,2.533-.661,5.427-.241,8.083-.321,2.131-.064,3.18-1.31,5.043-2.368a1.827,1.827,0,0,0,.542-2.467,3.506,3.506,0,0,0,3.658-1.192,2.929,2.929,0,0,0,0-3.562c.441.635.98-.733,1.034-1.034.212-1.189.31-.343,1.616-.42,1.286-.076,2.933-.745,3.225-2.143.451-2.16-.737-2.326-1.97-3.741l-.123-.227c.533.241,1.057.505,1.575.771,1.385.711,3.577.787,4.6,1.932a.569.569,0,0,0,1.02-.376c-.154-2.036-1.289-2.514-3-3.54" fill="#a3d140"/>
            </g>
          </g>
        </g>
        <path id="Path_4532" data-name="Path 4532" d="M29.149,109.514l.02-.024c0-.006,0,0-.02.024" fill="#515151"/>
        <g id="Group_8571" data-name="Group 8571" opacity="0.71" style="mix-blend-mode: multiply;isolation: isolate">
          <g id="Group_8570" data-name="Group 8570">
            <g id="Group_8569" data-name="Group 8569" clip-path="url(#clip-path-56)">
              <path id="Path_4533" data-name="Path 4533" d="M40.5,99.928a1.232,1.232,0,0,0-2.248-.088,15,15,0,0,0-1.064,3.214,2.313,2.313,0,0,0-.247.141,15.809,15.809,0,0,0-3.289,2.718,1.8,1.8,0,0,0-.409.871c-1.494-.14-2.955,1.329-4.077,2.707-.044.059-1.151,1.469-.654,1.387-.977.16-1.693-.488-2.59-.581a12.56,12.56,0,0,0-4.3.588c-.83-1.347-2.4-1.454-4.512-1.376-2.181.08-3.036-1.683-4.963-2.113-1.788-.4-3.194.078-4.924.547a1.925,1.925,0,0,0-.553,3.277,13.94,13.94,0,0,0,4.258,1.836c2.106.606,2.821,2.585,4.732,3.463,1.8.829,5.222,2.4,7.067.844a1.977,1.977,0,0,0,.676-2.209l-.081-.266a1.5,1.5,0,0,0-.311-.55,4.35,4.35,0,0,1,2.41-.155,6.451,6.451,0,0,0,2.695.487,3.122,3.122,0,0,0,2.534-.747,13.8,13.8,0,0,0,1.455-1.974c.772-1.1.928-.475-.042-1.706a1.947,1.947,0,0,0,3.037.1c.572-.624,1.237-.688,1.907-1.169a5.507,5.507,0,0,0,1.075-1.049,1.834,1.834,0,0,0,1.035-.632c1.626-1.932,2.487-5.178,1.381-7.564M17.83,113.305c.138,0,.275,0,.413-.006l.177-.014a1.853,1.853,0,0,0,.072.343,5.134,5.134,0,0,1-.662-.323" fill="#a3d140"/>
            </g>
          </g>
        </g>
      </g>
    </g>
    <g id="Group_8635" data-name="Group 8635">
      <g id="Group_8634" data-name="Group 8634" clip-path="url(#clip-path-2)">
        <g id="Group_8576" data-name="Group 8576" opacity="0.28" style="mix-blend-mode: color-dodge;isolation: isolate">
          <g id="Group_8575" data-name="Group 8575">
            <g id="Group_8574" data-name="Group 8574" clip-path="url(#clip-path-58)">
              <path id="Path_4535" data-name="Path 4535" d="M36.441,98.248c-2.259,1.769-4.759,2.7-7.163,4.2a16.2,16.2,0,0,1-8.746,2.512c-4.025-.031-3.563,6.671.534,6.287,3.175-.3,6.471-2.171,9.211-3.755,3.328-1.924,4.838-5.2,7.428-7.893.736-.765-.438-2-1.264-1.349" fill="#fff"/>
            </g>
          </g>
        </g>
        <g id="Group_8579" data-name="Group 8579" opacity="0.28" style="mix-blend-mode: color-dodge;isolation: isolate">
          <g id="Group_8578" data-name="Group 8578">
            <g id="Group_8577" data-name="Group 8577" clip-path="url(#clip-path-59)">
              <path id="Path_4536" data-name="Path 4536" d="M26.792,101.018c2.013-.691,3.789-1.088,5.505-2.438,1.3-1.025,1.917-3.137,3.4-3.87a2.414,2.414,0,1,0-2.255-4.244,8.12,8.12,0,0,0-3.157,3.973c-.927,1.96-2.886,3.291-4.5,4.685a1.087,1.087,0,0,0,1.006,1.894" fill="#fff"/>
            </g>
          </g>
        </g>
        <g id="Group_8582" data-name="Group 8582" opacity="0.28" style="mix-blend-mode: color-dodge;isolation: isolate">
          <g id="Group_8581" data-name="Group 8581">
            <g id="Group_8580" data-name="Group 8580" clip-path="url(#clip-path-60)">
              <path id="Path_4537" data-name="Path 4537" d="M39.817,96.566a1.5,1.5,0,0,1,.48-.549,1.383,1.383,0,0,0,.457-.507,2.323,2.323,0,0,0,.122-.516.589.589,0,0,0-.468-.67,1.35,1.35,0,0,0-1.445.43,2.946,2.946,0,0,0-.729,1.083.871.871,0,0,0,1.583.729" fill="#fff"/>
            </g>
          </g>
        </g>
        <g id="Group_8585" data-name="Group 8585" opacity="0.28" style="mix-blend-mode: color-dodge;isolation: isolate">
          <g id="Group_8584" data-name="Group 8584">
            <g id="Group_8583" data-name="Group 8583" clip-path="url(#clip-path-61)">
              <path id="Path_4538" data-name="Path 4538" d="M10.158,106.177a5.588,5.588,0,0,0,.661.048,1,1,0,0,0,.549-1.766,3.532,3.532,0,0,1-.311-.236,1.112,1.112,0,1,0-.9,1.954" fill="#fff"/>
            </g>
          </g>
        </g>
        <g id="Group_8588" data-name="Group 8588" opacity="0.31" style="mix-blend-mode: overlay;isolation: isolate">
          <g id="Group_8587" data-name="Group 8587">
            <g id="Group_8586" data-name="Group 8586" clip-path="url(#clip-path-62)">
              <path id="Path_4539" data-name="Path 4539" d="M21.594,102.888a3.032,3.032,0,0,1,.532.391,2.49,2.49,0,0,0,.737.379,3.857,3.857,0,0,0,1.768.28c.184-.031.357-.266.2-.439a2.612,2.612,0,0,0-1.547-.661,5.651,5.651,0,0,0-1.619-.366.22.22,0,0,0-.073.416" fill="#fff"/>
            </g>
          </g>
        </g>
        <g id="Group_8591" data-name="Group 8591" opacity="0.31" style="mix-blend-mode: overlay;isolation: isolate">
          <g id="Group_8590" data-name="Group 8590">
            <g id="Group_8589" data-name="Group 8589" clip-path="url(#clip-path-63)">
              <path id="Path_4540" data-name="Path 4540" d="M23.556,101.608a5.4,5.4,0,0,0,1.857.869,2.98,2.98,0,0,0,2.031.073.182.182,0,0,0-.032-.347c-.553-.149-1.151-.119-1.717-.221a4.7,4.7,0,0,1-1.852-.722c-.235-.166-.519.167-.287.348" fill="#fff"/>
            </g>
          </g>
        </g>
        <g id="Group_8594" data-name="Group 8594" opacity="0.31" style="mix-blend-mode: overlay;isolation: isolate">
          <g id="Group_8593" data-name="Group 8593">
            <g id="Group_8592" data-name="Group 8592" clip-path="url(#clip-path-64)">
              <path id="Path_4541" data-name="Path 4541" d="M26.706,100.091c.846,1.585,3.857,1.333,5.1.421a.273.273,0,0,0-.181-.489c-1.637-.009-3.25.872-4.819-.056-.081-.047-.136.061-.1.124" fill="#fff"/>
            </g>
          </g>
        </g>
        <g id="Group_8597" data-name="Group 8597" opacity="0.31" style="mix-blend-mode: overlay;isolation: isolate">
          <g id="Group_8596" data-name="Group 8596">
            <g id="Group_8595" data-name="Group 8595" clip-path="url(#clip-path-65)">
              <path id="Path_4542" data-name="Path 4542" d="M30.448,98.666a3.743,3.743,0,0,0,2.863-.706.158.158,0,0,0-.1-.285c-.937.1-1.731.751-2.7.665a.166.166,0,0,0-.058.326" fill="#fff"/>
            </g>
          </g>
        </g>
        <g id="Group_8600" data-name="Group 8600" opacity="0.31" style="mix-blend-mode: overlay;isolation: isolate">
          <g id="Group_8599" data-name="Group 8599">
            <g id="Group_8598" data-name="Group 8598" clip-path="url(#clip-path-66)">
              <path id="Path_4543" data-name="Path 4543" d="M32.437,93.165a6.238,6.238,0,0,0,4.685.2c.2-.063.148-.346-.036-.39-1.438-.342-2.955.062-4.366-.42a.338.338,0,0,0-.283.614" fill="#fff"/>
            </g>
          </g>
        </g>
        <g id="Group_8603" data-name="Group 8603" opacity="0.31" style="mix-blend-mode: overlay;isolation: isolate">
          <g id="Group_8602" data-name="Group 8602">
            <g id="Group_8601" data-name="Group 8601" clip-path="url(#clip-path-67)">
              <path id="Path_4544" data-name="Path 4544" d="M29.305,94.276a3.3,3.3,0,0,0,1.9.191.235.235,0,0,0,.067-.4,8.3,8.3,0,0,0-1.643-.5c-.47-.176-.8.532-.327.71" fill="#fff"/>
            </g>
          </g>
        </g>
        <g id="Group_8606" data-name="Group 8606" opacity="0.31" style="mix-blend-mode: overlay;isolation: isolate">
          <g id="Group_8605" data-name="Group 8605">
            <g id="Group_8604" data-name="Group 8604" clip-path="url(#clip-path-68)">
              <path id="Path_4545" data-name="Path 4545" d="M35.3,90.205a3.6,3.6,0,0,0,2.042.473.258.258,0,0,0,.141-.452c-.484-.465-1.244-.492-1.831-.785-.486-.243-.837.522-.352.764" fill="#fff"/>
            </g>
          </g>
        </g>
        <g id="Group_8609" data-name="Group 8609" opacity="0.31" style="mix-blend-mode: overlay;isolation: isolate">
          <g id="Group_8608" data-name="Group 8608">
            <g id="Group_8607" data-name="Group 8607" clip-path="url(#clip-path-69)">
              <path id="Path_4546" data-name="Path 4546" d="M28.736,110.68a5.342,5.342,0,0,0,.6-3.036c-.032-.6-.118-1.2-.185-1.8-.055-.487.052-.99-.4-1.281a.248.248,0,0,0-.293-.01c-.643.476-.179,1.6-.058,2.254a6.434,6.434,0,0,1-.073,3.682.225.225,0,0,0,.409.188" fill="#fff"/>
            </g>
          </g>
        </g>
        <g id="Group_8612" data-name="Group 8612" opacity="0.31" style="mix-blend-mode: overlay;isolation: isolate">
          <g id="Group_8611" data-name="Group 8611">
            <g id="Group_8610" data-name="Group 8610" clip-path="url(#clip-path-70)">
              <path id="Path_4547" data-name="Path 4547" d="M31.513,107.466a4.277,4.277,0,0,0,.465-1.593.227.227,0,0,0-.4-.124,3.969,3.969,0,0,0-.762,1.4c-.168.464.536.786.7.321" fill="#fff"/>
            </g>
          </g>
        </g>
        <g id="Group_8615" data-name="Group 8615" opacity="0.31" style="mix-blend-mode: overlay;isolation: isolate">
          <g id="Group_8614" data-name="Group 8614">
            <g id="Group_8613" data-name="Group 8613" clip-path="url(#clip-path-71)">
              <path id="Path_4548" data-name="Path 4548" d="M18.609,110.426c1.147.029,2.341-1.525,2.528-2.554a.2.2,0,0,0-.27-.226c-.892.367-1.3,1.944-2.332,1.911-.561-.018-.482.855.074.869" fill="#fff"/>
            </g>
          </g>
        </g>
        <g id="Group_8618" data-name="Group 8618" opacity="0.31" style="mix-blend-mode: overlay;isolation: isolate">
          <g id="Group_8617" data-name="Group 8617">
            <g id="Group_8616" data-name="Group 8616" clip-path="url(#clip-path-72)">
              <path id="Path_4549" data-name="Path 4549" d="M26.124,111.348a9.589,9.589,0,0,0,.8-3.422c.036-.778,0-2.289-.8-2.689a.227.227,0,0,0-.316.165.923.923,0,0,0,.046.709,5.939,5.939,0,0,1,.2,1.776,16.573,16.573,0,0,1-.263,3.358.173.173,0,0,0,.327.1" fill="#fff"/>
            </g>
          </g>
        </g>
        <g id="Group_8621" data-name="Group 8621" opacity="0.31" style="mix-blend-mode: overlay;isolation: isolate">
          <g id="Group_8620" data-name="Group 8620">
            <g id="Group_8619" data-name="Group 8619" clip-path="url(#clip-path-73)">
              <path id="Path_4550" data-name="Path 4550" d="M13.475,109.574a3.2,3.2,0,0,0,1.635-.761c.416-.341,1.182-.9,1.079-1.525A.321.321,0,0,0,15.93,107c-.489-.065-.883.365-1.173.7a5.568,5.568,0,0,1-1.392,1.373c-.238.124-.2.53.11.495" fill="#fff"/>
            </g>
          </g>
        </g>
        <g id="Group_8624" data-name="Group 8624" opacity="0.31" style="mix-blend-mode: overlay;isolation: isolate">
          <g id="Group_8623" data-name="Group 8623">
            <g id="Group_8622" data-name="Group 8622" clip-path="url(#clip-path-74)">
              <path id="Path_4551" data-name="Path 4551" d="M8.566,107.506a4.718,4.718,0,0,0,3.226-.374.1.1,0,0,0-.067-.183,6.856,6.856,0,0,1-3.138.438.06.06,0,0,0-.021.119" fill="#fff"/>
            </g>
          </g>
        </g>
        <g id="Group_8627" data-name="Group 8627" opacity="0.31" style="mix-blend-mode: overlay;isolation: isolate">
          <g id="Group_8626" data-name="Group 8626">
            <g id="Group_8625" data-name="Group 8625" clip-path="url(#clip-path-75)">
              <path id="Path_4552" data-name="Path 4552" d="M8.725,105.226a4.238,4.238,0,0,0,2.74.407c.114-.016.133-.193.01-.209a6.917,6.917,0,0,1-2.593-.539c-.213-.118-.366.223-.157.341" fill="#fff"/>
            </g>
          </g>
        </g>
        <g id="Group_8630" data-name="Group 8630" opacity="0.31" style="mix-blend-mode: overlay;isolation: isolate">
          <g id="Group_8629" data-name="Group 8629">
            <g id="Group_8628" data-name="Group 8628" clip-path="url(#clip-path-76)">
              <path id="Path_4553" data-name="Path 4553" d="M39.9,95.771a10.254,10.254,0,0,0,.754,2.887c.373,1.055.107,2.089.358,3.132.046.191.288.172.4.066,1.641-1.571-.343-4.753-1.374-6.135a.076.076,0,0,0-.136.05" fill="#fff"/>
            </g>
          </g>
        </g>
        <g id="Group_8633" data-name="Group 8633" opacity="0.98" style="mix-blend-mode: multiply;isolation: isolate">
          <g id="Group_8632" data-name="Group 8632">
            <g id="Group_8631" data-name="Group 8631" clip-path="url(#clip-path-77)">
              <path id="Path_4554" data-name="Path 4554" d="M27.713,103.845a17.338,17.338,0,0,0,6.84-3.909c2.242-2.113,3.387-5.056,5.813-7.085a.572.572,0,0,0-.528-1c-1.746.438-2.991,2.31-3.8,3.844a17.626,17.626,0,0,1-8.428,7.879.142.142,0,0,0,.1.267" fill="#55c626"/>
            </g>
          </g>
        </g>
        <path id="Path_4555" data-name="Path 4555" d="M23.824,82.883c-.066.052-.023.172.066.141a5.623,5.623,0,0,1,1.876-.014,3.045,3.045,0,0,1,2.1,1.009,6.1,6.1,0,0,1,.805,1.975,14.112,14.112,0,0,0,.888,2.028A13.6,13.6,0,0,0,30.4,89.41a15.042,15.042,0,0,0-8.393.39.227.227,0,0,0,.077.441,47.98,47.98,0,0,1,7.315.576,25.452,25.452,0,0,1,3.126.83,2.129,2.129,0,0,0,1.112.369c.5.169.99.339,1.486.506a5.166,5.166,0,0,0-1.773,1.937,4.882,4.882,0,0,0-.34,3.124,6.8,6.8,0,0,0,.512,1.6c.208.441.968,1.263.866,1.774-.014.07.071.142.135.093a1.153,1.153,0,0,0,.342-1.368,11.349,11.349,0,0,1-.751-3.2,3.474,3.474,0,0,1,2.234-3.034,5.087,5.087,0,0,1,.9-.271c3.753.942,8.527.655,10.09-3.515a.226.226,0,0,0-.4-.205c-2.624,4.186-8.532,2.472-12.239,1.178l-.124-.043a11.529,11.529,0,0,0-1.138-.84,9.773,9.773,0,0,1-1.309-1.425c-.454-.575-.951-1.13-1.381-1.723a16.481,16.481,0,0,1-1.126-2.2,4.407,4.407,0,0,0-2.553-2.211,3.988,3.988,0,0,0-1.854-.182c-.665.122-.887.484-1.386.875" fill="#2f792a"/>
        <path id="Path_4556" data-name="Path 4556" d="M32.578,109.228c.738.064,1.2-.592,1.488-1.179.07-.144.133-.293.191-.445.021.375.048.751.08,1.131.012.136.076,1.21.409,1.089.458-.168.337-1.209.372-1.662.008-.116.013-.234.019-.351a3,3,0,0,0,.6.592c.071.05.149.022.153-.058.029-.641-.9-5.082-.9-5.5,0-.034,0-.069,0-.1l.008.017a30.684,30.684,0,0,0,.838,3.095,15.557,15.557,0,0,0,1.105,2.389c-.037.11-.075.22-.112.331a2.322,2.322,0,0,0-.226.946c.013.132.111.465.281.526.46.166.756-.119.961-.486.026.2.053.4.085.608.035.228.208,1.414.636,1.353.591-.085.551-.794.5-1.35-.008-.087-.018-.174-.026-.261q.351.409.746.8c.6.588,1.3,1.312,2.095,1.269.16-.009.223-.212.1-.359a18.915,18.915,0,0,1-1.367-1.845c-.035-.054-.071-.107-.107-.162a1.094,1.094,0,0,0,1.228.065c.1-.077.041-.254-.081-.322a4.678,4.678,0,0,1-1.091-.911l.008-.01,0-.013c.187.022.373.029.558.034.23,0,.441-.059.673-.04s.221-.375,0-.466-.4-.24-.612-.344a5.4,5.4,0,0,0-.7-.294,7.1,7.1,0,0,1-1.16-.485c-.455-.441-1.03-.818-1.448-1.3a8,8,0,0,1-1.95-3.159c.5.743.773,1.262,1.174,1.752a6.67,6.67,0,0,0,1.293,1.2,4.592,4.592,0,0,0,1.328.768,4.532,4.532,0,0,0,.79.388c.308.111,1.876.675,1.9.112.018-.536-1.172-.923-1.519-1.105a5.13,5.13,0,0,1-.7-.444c.24.048.457.075.6.09a4.559,4.559,0,0,0,1.186-.015,2.317,2.317,0,0,0,.948-.256c.134-.094.043-.308-.1-.394a3.952,3.952,0,0,0-1.118-.349c-.267-.064-.535-.114-.8-.167a3.772,3.772,0,0,0,1.177-1.019c.119-.149-.112-.391-.273-.338-.525.171-1.094.284-1.638.415a5.494,5.494,0,0,1-.663.1c-.114-.054-.229-.106-.35-.155a9.76,9.76,0,0,1-1.079-.506,8.531,8.531,0,0,1-.979-.683l-.008-.012a.747.747,0,0,0-.292-.214c-.076-.056-.152-.109-.228-.162a4.933,4.933,0,0,0,.652.244,6.807,6.807,0,0,0,1.582.348,2.32,2.32,0,0,0,2.171-.738c.1-.123-.087-.291-.212-.262a5.062,5.062,0,0,1-1.484.1,4.659,4.659,0,0,0,.961-.748c.231-.233.482-.461.4-.867-.029-.152-.235-.215-.3-.106-.164.264-.706.365-.988.5a7.871,7.871,0,0,1-1.055.423,1.81,1.81,0,0,1-.3.057,1.643,1.643,0,0,0,.737-1.382.145.145,0,0,0-.2-.132c-.448.288-.8.677-1.282.93-.05.027-.1.052-.157.076a2.593,2.593,0,0,0-.8-.085c-.27-.127-.543-.248-.806-.385-.6-.313-1.189-.7-1.768-1.065a.063.063,0,0,0-.073,0,.128.128,0,0,0-.182.068,3.653,3.653,0,0,0-.084,1.212,8.22,8.22,0,0,1-.073,1.338,6.425,6.425,0,0,1-.146.758,2.306,2.306,0,0,1-.238.337,2.162,2.162,0,0,1-.442.4c-.188.121-.309.052-.555.021a2.768,2.768,0,0,0-2.087.582c-.278.229,0,.875.408.815.21-.03.412-.081.616-.129a1.062,1.062,0,0,0-.261.188,1.216,1.216,0,0,0-.212,1.437.181.181,0,0,0,.154.1.88.88,0,0,0,.522-.33.855.855,0,0,1,.536-.308c-.086.148-.18.289-.265.44a1.107,1.107,0,0,0,.068,1.377c.131.151.314.129.371-.022.16-.422.6-.72.814-1.111.256-.457,1.206-2.828,1.413-3,.01.083-.078,1.074-.076,1.136a10.263,10.263,0,0,1-.263,1.673,7.844,7.844,0,0,1-.464,1.768,2.809,2.809,0,0,1-.415.774c-.188.233-.467.342-.623.6a.6.6,0,0,0,.414.815m3.687-8.043c-.014-.02-.028-.037-.042-.056a1.018,1.018,0,0,0,.09.084l-.048-.028" fill="#4d913c"/>
        <path id="Path_4557" data-name="Path 4557" d="M26.02,74.69c-.611.178-.779.849-.825,1.408-.012.137-.015.276-.015.416q-.2-.441-.416-.881c-.052-.106-.438-.947-.667-.745-.314.276.106,1.073.22,1.447.029.1.062.191.093.287a2.574,2.574,0,0,0-.661-.289c-.073-.018-.127.029-.105.094.176.523,2.3,3.795,2.429,4.128l.033.084-.013-.011a26.258,26.258,0,0,0-1.634-2.22,13.224,13.224,0,0,0-1.629-1.57c0-.1-.009-.2-.013-.3a2.006,2.006,0,0,0-.114-.828c-.051-.1-.233-.339-.388-.335-.42.011-.569.33-.619.689-.084-.154-.169-.308-.257-.461-.1-.172-.607-1.069-.931-.886-.447.251-.194.807.022,1.235.034.068.069.135.1.2q-.409-.219-.846-.407a2.776,2.776,0,0,0-2.074-.364c-.125.057-.113.239.031.319a16.059,16.059,0,0,1,1.67,1.053l.136.1a.941.941,0,0,0-1,.33c-.06.1.046.216.165.233a4.051,4.051,0,0,1,1.158.391l0,.011v.011c-.156.041-.308.093-.457.147-.186.067-.335.185-.527.242s-.061.368.145.372.4.068.6.086a4.643,4.643,0,0,0,.655.017,5.964,5.964,0,0,1,1.081.028c.5.212,1.08.335,1.563.589a6.888,6.888,0,0,1,2.547,1.925c-.63-.441-1.013-.771-1.486-1.039a5.746,5.746,0,0,0-1.412-.563,3.956,3.956,0,0,0-1.3-.2,3.818,3.818,0,0,0-.753-.065c-.281.007-1.714.042-1.554.5.152.435,1.226.375,1.56.413a4.421,4.421,0,0,1,.7.138c-.207.036-.39.082-.51.115a3.952,3.952,0,0,0-.947.381,2,2,0,0,0-.679.5c-.079.117.061.26.2.285a3.437,3.437,0,0,0,1-.068c.234-.032.464-.075.695-.116a3.238,3.238,0,0,0-.627,1.184c-.049.155.211.277.324.185.367-.3.789-.568,1.183-.843a4.775,4.775,0,0,1,.5-.285c.107.008.216.014.328.015a8.426,8.426,0,0,1,1.022.07,7.24,7.24,0,0,1,1,.244l.011.006a.654.654,0,0,0,.3.081c.078.021.156.04.233.058a4.241,4.241,0,0,0-.6.008,5.909,5.909,0,0,0-1.377.213,2,2,0,0,0-1.51,1.267c-.038.129.16.206.252.145a4.337,4.337,0,0,1,1.158-.543,3.943,3.943,0,0,0-.537.9.794.794,0,0,0-.054.821c.071.112.255.1.275-.009.048-.263.451-.512.636-.705a6.947,6.947,0,0,1,.714-.667,1.535,1.535,0,0,1,.224-.14,1.413,1.413,0,0,0-.16,1.337.124.124,0,0,0,.2.042c.27-.37.433-.792.739-1.144.031-.037.067-.073.1-.11a2.228,2.228,0,0,0,.666-.18c.257.017.513.029.767.057.577.065,1.171.193,1.748.3a.053.053,0,0,0,.058-.021.11.11,0,0,0,.125-.112,3.125,3.125,0,0,0-.309-1,7.067,7.067,0,0,1-.358-1.1,5.572,5.572,0,0,1-.119-.653,2.037,2.037,0,0,1,.086-.344,1.9,1.9,0,0,1,.229-.46c.113-.155.232-.138.439-.19a2.371,2.371,0,0,0,1.491-1.115c.152-.27-.269-.7-.581-.526-.158.089-.3.193-.453.295a.927.927,0,0,0,.151-.232,1.044,1.044,0,0,0-.277-1.217.152.152,0,0,0-.155-.033.76.76,0,0,0-.316.427.732.732,0,0,1-.334.413c.023-.145.055-.287.076-.435a.951.951,0,0,0-.483-1.082c-.152-.08-.292-.006-.29.134a8.481,8.481,0,0,1-.307,1.143c-.063.446-.087,2.641-.2,2.841-.033-.064-.271-.885-.292-.934A8.943,8.943,0,0,1,26.38,78.2a6.763,6.763,0,0,1-.177-1.562,2.4,2.4,0,0,1,.092-.75c.078-.245.267-.419.311-.677a.513.513,0,0,0-.586-.525m-.452,7.594.051.031c-.032-.014-.065-.028-.1-.039l.047.008" fill="#4d913c"/>
      </g>
    </g>
    <g id="Group_8637" data-name="Group 8637">
      <g id="Group_8636" data-name="Group 8636" clip-path="url(#clip-path-78)">
        <path id="Path_4558" data-name="Path 4558" d="M33.938,103.1c-.5,1.116-.6,2.353-1.091,3.471a7.865,7.865,0,0,1-.972,1.577,1.812,1.812,0,0,0-.564,1.256.426.426,0,0,0,.329.39c1.32.274,2.146-1.565,2.5-2.567a6.243,6.243,0,0,0,.212-4.092.227.227,0,0,0-.414-.035" fill="#72a847"/>
        <path id="Path_4559" data-name="Path 4559" d="M36.565,103.674a7.462,7.462,0,0,0,5.67,4.1c1.052.034.938-1.53-.07-1.606-2.046-.156-3.619-1.89-5.393-2.665a.149.149,0,0,0-.207.175" fill="#72a847"/>
        <path id="Path_4560" data-name="Path 4560" d="M36.239,106.253c-.6,1.562.334,3.765,1.452,4.9a8.479,8.479,0,0,0,2.263,1.5c.752.385,1.519,1.03,2.386.906a.692.692,0,0,0,.616-.878c-.233-1.333-2.078-1.672-3.089-2.3a6.069,6.069,0,0,1-2.007-2.165,5.715,5.715,0,0,0-1.362-2,.169.169,0,0,0-.259.049" fill="#72a847"/>
        <path id="Path_4561" data-name="Path 4561" d="M32.294,101.042a3.322,3.322,0,0,1-2.428,1.611c-1.25.187-1.158,2.171.085,1.969a4.705,4.705,0,0,0,3.163-1.679c.417-.581.776-1.974-.271-2.162a.507.507,0,0,0-.549.261" fill="#72a847"/>
        <path id="Path_4562" data-name="Path 4562" d="M36.851,101.295c-.165,1.2,1.806.927,2.462.779,1.119-.253,2.985-1.115,2.246-2.532a.817.817,0,0,0-1.288-.1,4.5,4.5,0,0,1-1.28.982c-.319.18-1.36.823-1.737.68a.286.286,0,0,0-.4.192" fill="#72a847"/>
        <path id="Path_4563" data-name="Path 4563" d="M34.562,100.215a2.974,2.974,0,0,0,2.692.525,3.844,3.844,0,0,0,2.631-1.782c.2-.473-.329-1.1-.812-.733-1.1.838-2.585,1.791-4.023,1.275-.422-.152-.914.379-.488.715" fill="#117f19"/>
        <path id="Path_4564" data-name="Path 4564" d="M38.85,107.659l.033-.1c.1-.306-.41-.489-.535-.19-.572,1.371,1.592,2.811,2.538,3.4.6.376,1.3-.621.708-1.037a18.081,18.081,0,0,1-1.688-1.276c-.422-.382-.688-.924-1.174-1.217.009.165.017.33.026.495.046-.024.076-.034.092-.083" fill="#117f19"/>
      </g>
    </g>
    <g id="Group_8639" data-name="Group 8639">
      <g id="Group_8638" data-name="Group 8638" clip-path="url(#clip-path-79)">
        <path id="Path_4566" data-name="Path 4566" d="M27.328,84.354a.928.928,0,0,0-.2-1.366,2.717,2.717,0,0,0-2.074-.272c-1.314.21-3.165,1.233-2.767,2.823a.865.865,0,0,0,1.452.314c.273-.243.368-.6.645-.836a2.678,2.678,0,0,1,1.242-.493,3.134,3.134,0,0,1,1.051-.054c.249.03.455.1.656-.116" fill="#72a847"/>
        <path id="Path_4567" data-name="Path 4567" d="M24.618,81.465c-1.62-.75-3.889-.683-5.1.809-.6.744.3,1.97,1.15,1.345a6.227,6.227,0,0,1,1.924-1.053,18.546,18.546,0,0,0,1.99-.673.235.235,0,0,0,.037-.428" fill="#72a847"/>
        <path id="Path_4568" data-name="Path 4568" d="M24.823,80.173C23.8,78,20.713,77.407,18.565,77.822c-1.009.195-.659,1.736.3,1.719a12.015,12.015,0,0,1,2.829.114,13.863,13.863,0,0,1,2.59.974c.264.113.69-.132.538-.456" fill="#72a847"/>
        <path id="Path_4569" data-name="Path 4569" d="M27.227,80.325a11.233,11.233,0,0,0-.176-2.8,7.558,7.558,0,0,1,.468-2.874.851.851,0,0,0-.268-.824.86.86,0,0,0-1.341.252,5.832,5.832,0,0,0,.8,6.416.315.315,0,0,0,.515-.167" fill="#72a847"/>
        <path id="Path_4570" data-name="Path 4570" d="M28.611,81.378q.324.26.284-.042a2.974,2.974,0,0,1,.095-.5,2.386,2.386,0,0,1,.408-.851,3.008,3.008,0,0,1,1.7-.888.781.781,0,0,0,.537-.589.975.975,0,0,0,.017-.2.8.8,0,0,0-.624-.739,3.044,3.044,0,0,0-2.964,1.64,2.466,2.466,0,0,0,.151,2.828.42.42,0,0,0,.488.038l.062-.031a.347.347,0,0,0,.163-.315c0-.019,0-.039-.005-.059a.3.3,0,0,0-.314-.288" fill="#518920"/>
        <path id="Path_4571" data-name="Path 4571" d="M24.549,78.628c-1.184-1.7-2.209-3.322-2.28-4.512-.032-.527.225-1.9-.735-1.7-.916.2-.752,1.705-.608,2.357a4.945,4.945,0,0,0,1.808,2.914c.181.124,1.815.937,1.815.937" fill="#117f19"/>
        <path id="Path_4572" data-name="Path 4572" d="M21.028,76.338A7.412,7.412,0,0,0,18.1,74.985a2.966,2.966,0,0,0-2.787.2.386.386,0,0,0,.112.6,11.3,11.3,0,0,0,2.623.582,9.293,9.293,0,0,0,2.77.554.336.336,0,0,0,.207-.58" fill="#117f19"/>
        <path id="Path_4573" data-name="Path 4573" d="M28.778,77.907A11.713,11.713,0,0,0,30.11,76.46c.21-.259.674-.86.271-1.163-.786-.59-2,1.7-2.185,2.212a.357.357,0,0,0,.582.4" fill="#117f19"/>
      </g>
    </g>
    <g id="Group_8641" data-name="Group 8641">
      <g id="Group_8640" data-name="Group 8640" clip-path="url(#clip-path-80)">
        <path id="Path_4575" data-name="Path 4575" d="M46.17,91.834a8.912,8.912,0,0,1-3.658,1.223,9.02,9.02,0,0,1-3.805-.333c-2.324-.628-4.512-1.6-6.869-2.134a19.485,19.485,0,0,0-6.5-.59c-1.765.2-4.765.358-4.8,2.73a.954.954,0,0,0,.529.821c1.09.509,1.891.009,2.9-.437a7.839,7.839,0,0,1,3.368-.561c2.578.016,5.555-.75,8,.056,2.214.729,4.391,1.832,6.77,1.648.947-.074,1.643.691,2.465.2a4.771,4.771,0,0,0,1.78-2.46c.048-.1-.078-.242-.176-.159" fill="#4d913c"/>
      </g>
    </g>
    <g id="Group_8643" data-name="Group 8643">
      <g id="Group_8642" data-name="Group 8642" clip-path="url(#clip-path-2)">
        <path id="Path_4577" data-name="Path 4577" d="M10.353,85.566a2.993,2.993,0,0,0,1.518,2.393c.185.137.378.266.574.389-.485-.077-.972-.145-1.463-.207-.177-.022-1.566-.236-1.41.26.214.681,1.561.807,2.147.982.15.044.3.084.453.126a2.941,2.941,0,0,0-.767.658.141.141,0,0,0,.074.228c.828.221,6.575.193,7.114.308l.135.029-.023.008a33.481,33.481,0,0,0-4.006.287,15.609,15.609,0,0,0-3.093.858l-.428-.248a3.471,3.471,0,0,0-1.222-.579c-.172-.02-.6.021-.682.239-.217.59.149,1.08.624,1.467-.262-.02-.524-.039-.787-.053-.3-.015-1.83-.11-1.753.5.107.841,1.024.985,1.743,1.067l.339.036a12.474,12.474,0,0,0-1.035.81c-.762.665-1.7,1.428-1.65,2.543a.3.3,0,0,0,.463.24,18.225,18.225,0,0,1,2.393-1.373c.07-.034.14-.068.209-.1a1.564,1.564,0,0,0-.089,1.683.243.243,0,0,0,.416-.022,4.672,4.672,0,0,1,1.184-1.254l.013.014.016.01c-.029.253-.039.509-.046.762-.009.318.074.628.049.944s.483.412.6.13.312-.49.447-.749a6.32,6.32,0,0,0,.385-.891,8.089,8.089,0,0,1,.632-1.471c.573-.5,1.063-1.194,1.684-1.638,2.541-1.815,4.1-1.813,4.1-1.811a23.58,23.58,0,0,0-2.272,1.132,6.58,6.58,0,0,0-1.563,1.452,4.916,4.916,0,0,0-1,1.622,4.96,4.96,0,0,0-.506.984c-.144.4-.882,2.407-.153,2.593.692.177,1.2-1.362,1.436-1.79a5.337,5.337,0,0,1,.577-.845c-.063.318-.1.612-.119.808a6.823,6.823,0,0,0,.014,1.647,3.905,3.905,0,0,0,.325,1.383.3.3,0,0,0,.511-.026,4.877,4.877,0,0,0,.457-1.451c.084-.351.15-.708.219-1.064a6.925,6.925,0,0,0,1.313,1.918c.191.207.506-.044.438-.282-.219-.775-.362-1.6-.529-2.385a8.665,8.665,0,0,1-.124-.947c.07-.141.138-.286.2-.44a10.879,10.879,0,0,1,.659-1.351,8.755,8.755,0,0,1,.889-1.163L20,93.924a.778.778,0,0,0,.28-.343c.072-.089.142-.179.209-.271a5.843,5.843,0,0,0-.318.835,8.819,8.819,0,0,0-.458,2.092,3.96,3.96,0,0,0,.944,3.214c.158.167.375-.039.34-.22a7.861,7.861,0,0,1-.124-2.084,8.51,8.51,0,0,0,.962,1.541c.3.388.593.8,1.12.8a.225.225,0,0,0,.139-.388c-.342-.3-.47-1.079-.637-1.506a14.087,14.087,0,0,1-.542-1.58,3,3,0,0,1-.072-.434,2.76,2.76,0,0,0,1.784,1.41.164.164,0,0,0,.17-.246c-.369-.7-.87-1.3-1.2-2.037-.034-.077-.066-.158-.1-.24a3.586,3.586,0,0,0,.113-1.082c.165-.339.323-.683.5-1.009.408-.741.914-1.447,1.386-2.148a.088.088,0,0,0,0-.1.212.212,0,0,0-.087-.271A4.905,4.905,0,0,0,22.85,89.4a11.123,11.123,0,0,1-1.729-.477,9.713,9.713,0,0,1-.981-.416,4.122,4.122,0,0,1-.433-.424,4.028,4.028,0,0,1-.518-.726c-.156-.294-.066-.443-.025-.775a4.666,4.666,0,0,0-.742-3.053c-.294-.449-1.13-.25-1.056.336.038.3.1.593.164.889a1.96,1.96,0,0,0-.241-.414,1.72,1.72,0,0,0-1.857-.7.192.192,0,0,0-.13.186,1.606,1.606,0,0,0,.423.815,1.536,1.536,0,0,1,.4.829c-.191-.161-.373-.33-.567-.492a1.4,1.4,0,0,0-1.78-.293.3.3,0,0,0,.026.52c.544.34.928,1.027,1.433,1.44.59.483,3.649,2.466,3.868,2.8-.108-.01-1.388-.41-1.469-.426a14.759,14.759,0,0,1-2.162-.834,11.823,11.823,0,0,1-2.283-1.142,4.775,4.775,0,0,1-1-.791,10.928,10.928,0,0,0-.777-1.033c-.33-.284-1.013-.162-1.057.343m10.382,7.371c.024-.013.048-.029.072-.043a1.165,1.165,0,0,0-.109.1c.013-.019.025-.039.037-.059" fill="#4d913c"/>
      </g>
    </g>
    <g id="Group_8645" data-name="Group 8645">
      <g id="Group_8644" data-name="Group 8644" clip-path="url(#clip-path-82)">
        <path id="Path_4578" data-name="Path 4578" d="M20.1,93.616c-1.721.485-2.145,2.41-2.3,3.982-.123,1.253-.454,4.031,1.077,4.575a.357.357,0,0,0,.51-.329,6.591,6.591,0,0,0-.455-1.6,8.586,8.586,0,0,1-.088-2.337,8.49,8.49,0,0,1,1.394-4.125c.054-.089-.049-.188-.138-.163" fill="#72a847"/>
        <path id="Path_4579" data-name="Path 4579" d="M16.9,96.012c-1.1.419-1.524,1.63-2.024,2.6-.3.587-1.2,1.782-.4,2.313a.182.182,0,0,0,.217-.041,1.639,1.639,0,0,0,.357-.708c.18-.461.423-.9.645-1.342a11.253,11.253,0,0,1,1.361-2.581.152.152,0,0,0-.157-.245" fill="#72a847"/>
        <path id="Path_4580" data-name="Path 4580" d="M18.345,91.727a7.128,7.128,0,0,0-4.972,3c-.969,1.317-2.063,3.45-1.721,5.123.1.512.792.451,1.013.085a7.761,7.761,0,0,0,.629-1.9,8.63,8.63,0,0,1,1.375-2.754c1.07-1.393,2.7-1.862,3.923-3.025a.316.316,0,0,0-.247-.521" fill="#72a847"/>
        <path id="Path_4581" data-name="Path 4581" d="M11.759,94.581a12.621,12.621,0,0,0-4.365,2.282c-.735.561-1.706,1.127-1.448,2.162a.36.36,0,0,0,.532.193,26.247,26.247,0,0,0,2.452-1.96c1.011-.769,2.023-1.505,2.995-2.323a.2.2,0,0,0-.166-.354" fill="#72a847"/>
        <path id="Path_4582" data-name="Path 4582" d="M18.383,90.5a9.235,9.235,0,0,0-4.309-.647c-1.269.007-2.857.047-3.857.9-.252.217.013.577.278.586,1.345.043,2.683-.457,4.063-.435a14.7,14.7,0,0,0,3.785.069.262.262,0,0,0,.04-.478" fill="#72a847"/>
        <path id="Path_4583" data-name="Path 4583" d="M13.418,89c-.756-.245-1.531-.415-2.307-.587-.59-.132-1.391-.506-1.951-.164a.3.3,0,0,0-.088.406c.322.591,1.342.644,1.936.743a8.825,8.825,0,0,0,2.367.106.256.256,0,0,0,.043-.5" fill="#72a847"/>
        <path id="Path_4584" data-name="Path 4584" d="M19.454,89.305a14.768,14.768,0,0,0-3.417-3.124,21.9,21.9,0,0,1-2.114-1.613c-.427-.366-.556-.449-1.1-.3a.3.3,0,0,0-.2.373,5.423,5.423,0,0,0,2.538,2.234c1.4.832,2.554,2.007,4.018,2.735.177.088.408-.132.274-.305" fill="#72a847"/>
        <path id="Path_4585" data-name="Path 4585" d="M18.152,86.435c-.522-.819-1.2-1.527-1.744-2.333-.4-.586-.635-1.353-1.349-1.572a.217.217,0,0,0-.253.162c-.26.8.512,1.632.968,2.23a6.664,6.664,0,0,0,2.028,1.9.273.273,0,0,0,.35-.388" fill="#72a847"/>
        <path id="Path_4586" data-name="Path 4586" d="M20.7,95.648a3.558,3.558,0,0,0,.437,2.8c.413.859,1.023,2.227,2.069,2.366a.306.306,0,0,0,.365-.308c-.068-.829-.788-1.353-1.237-2.025a13,13,0,0,1-1.441-2.814.106.106,0,0,0-.193-.016" fill="#72a847"/>
        <path id="Path_4587" data-name="Path 4587" d="M25.209,89.645c-.766-.428-1.72-.4-2.53-.8a4.442,4.442,0,0,1-2.159-2.229c-.6-1.385-.994-3.815-2.9-3.816a.509.509,0,0,0-.457.652c.127.637.424.8.81,1.329a8.618,8.618,0,0,1,.935,1.985A5.722,5.722,0,0,0,20.7,89.239c1.107.852,3.353,1.824,4.561.683a.179.179,0,0,0-.052-.277" fill="#117f19"/>
        <path id="Path_4588" data-name="Path 4588" d="M14.421,92.13a9.7,9.7,0,0,1-4.126.817c-1.3-.036-2.566-.82-3.814-.722a.336.336,0,0,0-.265.511c.686,1.2,2.686,1.38,3.93,1.378a7.028,7.028,0,0,0,4.453-1.6c.171-.136.06-.486-.178-.382" fill="#117f19"/>
        <path id="Path_4589" data-name="Path 4589" d="M16.4,88.719a22.777,22.777,0,0,1-3.245-2.342c-.817-.821-1.314-2.325-2.35-2.816a.4.4,0,0,0-.569.271c-.32,1.319,1.154,2.694,2.065,3.5a6.675,6.675,0,0,0,3.935,1.845.265.265,0,0,0,.164-.458" fill="#117f19"/>
        <path id="Path_4590" data-name="Path 4590" d="M17.824,93.628a16.491,16.491,0,0,0-3.642,2.792,7.291,7.291,0,0,0-1.255,3.189.318.318,0,0,0,.4.365c1.1-.21.934-1.609,1.346-2.431.722-1.442,2.288-2.49,3.391-3.636a.186.186,0,0,0-.239-.279" fill="#117f19"/>
      </g>
    </g>
    <g id="Group_8647" data-name="Group 8647">
      <g id="Group_8646" data-name="Group 8646" clip-path="url(#clip-path-2)">
        <path id="Path_4592" data-name="Path 4592" d="M46.832,110.523A5.02,5.02,0,0,1,50.3,109.8c1.215.192,2.2.759,1.978,2.182-.164,1.037-1.271,1.7-2.856,1.446a6.416,6.416,0,0,1-2.252-.842,7.827,7.827,0,0,0-1.645,3.582c-.272,1.719.267,2.822,1.734,3.054a4.25,4.25,0,0,0,3.428-1.022c.269-.26.483-.364.6-.345.148.023.187.257.133.6-.305,1.927-2.6,2.718-4.677,2.389-2.668-.422-4.011-2.109-3.635-4.48a8.952,8.952,0,0,1,2.72-5.1,2.968,2.968,0,0,1-.492-1.689.32.32,0,0,1,.348-.279c.371.059.675.821,1.142,1.23m1.2,1.252a5.913,5.913,0,0,0,1.694.527c.474.075.824-.022.878-.362.063-.4-.146-.617-.635-.694a2.568,2.568,0,0,0-1.937.529" fill="#29601a"/>
        <path id="Path_4593" data-name="Path 4593" d="M58.071,117.839c.15,0,.207.183.2.528-.01.839-1.12,3.045-4.556,3a2.369,2.369,0,0,1-2.624-2.375c.039-2.866,1.956-4.926,4.041-4.9,1.126.016,1.733.624,1.721,1.464-.023,1.77-1.946,1.984-3.547,2.7l0,.375c-.011.825.871,1.017,1.426,1.025,1.98.026,2.995-1.821,3.341-1.816m-4.643-.617c.848-.544,1.556-.805,1.564-1.42,0-.226-.145-.377-.461-.381-.6-.008-.941.858-1.1,1.8" fill="#29601a"/>
        <path id="Path_4594" data-name="Path 4594" d="M58.219,118.261c-.506-3.641.679-8.412,3.74-8.837a1.249,1.249,0,0,1,1.551,1.132c.254,1.829-1.794,3.765-3.315,6.446l.083.594c.153,1.1.759,1.531,1.5,1.427a2.878,2.878,0,0,0,2.057-1.665c.181-.328.356-.488.475-.505.148-.02.232.15.28.492a3.537,3.537,0,0,1-2.8,3.433c-1.634.228-3.281-.391-3.577-2.517m1.911-3.144c1.052-2.237,1.967-2.955,1.839-3.877-.031-.223-.12-.316-.3-.291-.639.089-1.453,1.641-1.541,4.168" fill="#29601a"/>
        <path id="Path_4595" data-name="Path 4595" d="M70.669,114.648c.142-.047.256.1.364.432.262.8-.069,3.245-3.332,4.32a2.367,2.367,0,0,1-3.253-1.393c-.9-2.721.246-5.293,2.227-5.944,1.069-.353,1.841.025,2.1.823.553,1.681-1.195,2.51-2.475,3.705l.117.357c.258.783,1.155.677,1.682.5,1.881-.619,2.239-2.695,2.567-2.8m-4.59.927c.624-.79,1.209-1.267,1.017-1.851-.071-.213-.26-.309-.559-.21-.57.186-.611,1.116-.458,2.061" fill="#29601a"/>
        <path id="Path_4596" data-name="Path 4596" d="M74.9,109.752c.5,1.52.768,2.958,1.049,3.419.086.142.171.194.273.133.5-.306.695-2.551.938-2.7.128-.078.273.045.452.34a3.27,3.27,0,0,1-.978,4.128c-.806.492-1.667-.054-2.191-.912a6.937,6.937,0,0,1-.945-2.9,3.66,3.66,0,0,1-.749.615,3.1,3.1,0,0,1-.335.17,11.7,11.7,0,0,0,.747,2c.423.691.928,1.349,1.147,1.707.117.192.1.908-.761,1.432-.422.257-.852-.131-1.329-.912a8.321,8.321,0,0,1-1.591-4.107,1.834,1.834,0,0,1-1.207-.654c-.305-.5-.218-.99.422-1.381.717-.438,1.661.217,2,.572a1.665,1.665,0,0,0,.526-.233c.614-.374.791-1.151,1.15-1.369.281-.172.938.271,1.381.651" fill="#29601a"/>
        <path id="Path_4597" data-name="Path 4597" d="M77.5,106.554c.9.774,1.222,1.983,2.289,2.9.24.206.507.239.851-.159.509-.591.268-1.254-.158-1.977-.817-1.119-2.079-3.078-2.277-3.468a.615.615,0,0,1,.063-.717c.392-.455,1.606-.14,1.879.1a31.176,31.176,0,0,1,3.168,4.433c.148-2.17-.5-3.7-.253-3.98.1-.113.273-.042.535.184.875.753,1.391,3.257.745,5.453.9,1.412,1.621,2.645.2,4.293a2.216,2.216,0,0,1-3.067.5c-.977-.843.159-2.3,1.238-4.378-.249-.354-.51-.717-.791-1.058a2.353,2.353,0,0,1-.528,2.2c-.881,1.023-1.88,1.33-2.811.528a3.1,3.1,0,0,1-.846-1.363l-2.408-2.65a2.221,2.221,0,0,1,.549-1.189c.461-.534,1.042-.152,1.621.348m6.06,4.548c-.715,1.266-1.32,1.853-1.047,2.088.329.284.9-.035,1.147-.319.341-.4.241-1.039-.1-1.769" fill="#29601a"/>
      </g>
    </g>
  </g>
</svg>
